<svg width="109" height="20" viewBox="0 0 109 20" fill="none" xmlns="http://www.w3.org/2000/svg">
<path d="M5.19008 17.518C5.19008 17.57 5.25075 17.6133 5.37208 17.648C5.49341 17.6827 5.64941 17.7173 5.84008 17.752C6.04808 17.7693 6.26475 17.7867 6.49008 17.804C6.73275 17.804 6.96675 17.804 7.19208 17.804H7.89408V19H0.302078V17.804H0.588078C1.22941 17.804 1.75808 17.7433 2.17408 17.622C2.59008 17.5007 2.79808 17.2493 2.79808 16.868V2.672C2.79808 2.29067 2.59008 2.03933 2.17408 1.918C1.75808 1.79667 1.22941 1.736 0.588078 1.736H0.302078V0.539999H8.02408C10.1734 0.539999 11.8461 1.034 13.0421 2.022C14.2381 3.01 14.8361 4.32733 14.8361 5.974C14.8361 7.066 14.5501 8.03667 13.9781 8.886C13.4234 9.73533 12.6261 10.4027 11.5861 10.888C10.5461 11.3733 9.31541 11.616 7.89408 11.616H4.41008V10.16H7.84208C8.84741 10.16 9.67075 9.98667 10.3121 9.64C10.9534 9.29333 11.4301 8.808 11.7421 8.184C12.0714 7.56 12.2361 6.82333 12.2361 5.974C12.2361 5.142 12.0801 4.44 11.7681 3.868C11.4561 3.27867 10.9881 2.828 10.3641 2.516C9.74008 2.204 8.94275 2.048 7.97208 2.048H5.19008V17.518ZM24.1906 0.539999V1.736H23.9306C23.2546 1.736 22.6999 1.79667 22.2666 1.918C21.8333 2.03933 21.6166 2.282 21.6166 2.646V17.492H25.4646C26.2099 17.492 26.8166 17.466 27.2846 17.414C27.7526 17.3447 28.0993 17.232 28.3246 17.076C28.5673 16.92 28.6973 16.6773 28.7146 16.348L28.9486 13.176H30.4826V19H16.7286V17.804H16.9886C17.6299 17.804 18.1586 17.7433 18.5746 17.622C18.9906 17.5007 19.1986 17.2493 19.1986 16.868V2.672C19.1986 2.29067 18.9906 2.03933 18.5746 1.918C18.1586 1.79667 17.6299 1.736 16.9886 1.736H16.7286V0.539999H24.1906ZM36.5684 11.226H44.3684L44.3944 12.656H36.3864L36.5684 11.226ZM40.0784 1.528L40.5204 2.282L35.3464 17.336C35.3464 17.4227 35.4504 17.5093 35.6584 17.596C35.8838 17.6653 36.1611 17.7173 36.4904 17.752C36.8198 17.7867 37.1578 17.804 37.5044 17.804H37.8944V19H31.9404V17.804H32.0704C32.5558 17.804 32.9371 17.7347 33.2144 17.596C33.4918 17.4573 33.7171 17.1453 33.8904 16.66L39.4544 0.539999H42.0804L47.8524 17.076C47.9738 17.4053 48.1731 17.6133 48.4504 17.7C48.7451 17.7693 49.1091 17.804 49.5424 17.804H49.6724V19H42.9384V17.804H43.3804C43.7098 17.804 44.0478 17.7953 44.3944 17.778C44.7411 17.7607 45.0271 17.7347 45.2524 17.7C45.4778 17.648 45.5904 17.596 45.5904 17.544L40.0784 1.528ZM56.4907 2.048C55.9361 2.048 55.4507 2.06533 55.0347 2.1C54.6361 2.11733 54.3067 2.16933 54.0467 2.256C53.7867 2.34267 53.5874 2.45533 53.4487 2.594C53.3274 2.73267 53.2494 2.92333 53.2147 3.166L52.9807 5.636H51.5507V0.539999H64.5247V2.178L52.7987 18.506L52.4347 17.492H59.7147C60.4601 17.492 61.0667 17.466 61.5347 17.414C62.0027 17.3447 62.3494 17.232 62.5747 17.076C62.8174 16.92 62.9474 16.6773 62.9647 16.348L63.1987 13.488H64.6807V19H51.1347V17.284L62.5487 1.32L63.0427 2.048H56.4907ZM67.2305 19V17.804H67.5165C67.9325 17.804 68.3052 17.778 68.6345 17.726C68.9639 17.6567 69.2239 17.5527 69.4145 17.414C69.6052 17.2753 69.7005 17.076 69.7005 16.816V2.672C69.7005 2.412 69.6052 2.22133 69.4145 2.1C69.2239 1.96133 68.9639 1.866 68.6345 1.814C68.3052 1.762 67.9325 1.736 67.5165 1.736H67.2305V0.539999H73.4185L78.6445 16.712L78.1505 16.66L83.5325 0.539999H89.6165V1.736H89.3305C88.9145 1.736 88.5332 1.762 88.1865 1.814C87.8572 1.866 87.5972 1.96133 87.4065 2.1C87.2159 2.22133 87.1205 2.412 87.1205 2.672V16.868C87.1205 17.1107 87.2159 17.3013 87.4065 17.44C87.5972 17.5787 87.8572 17.674 88.1865 17.726C88.5332 17.778 88.9145 17.804 89.3305 17.804H89.6165V19H82.4665V17.804H82.7005C83.0299 17.804 83.3419 17.7953 83.6365 17.778C83.9485 17.7607 84.1999 17.7347 84.3905 17.7C84.5985 17.648 84.7025 17.596 84.7025 17.544V1.086L84.9625 1.138L78.8005 19.052H77.2665L71.1045 1.112L71.3645 1.164V17.518C71.3645 17.57 71.4772 17.622 71.7025 17.674C71.9452 17.726 72.2312 17.7607 72.5605 17.778C72.8899 17.7953 73.2019 17.804 73.4965 17.804H73.6005V19H67.2305ZM95.6016 11.226H103.402L103.428 12.656H95.4196L95.6016 11.226ZM99.1116 1.528L99.5536 2.282L94.3796 17.336C94.3796 17.4227 94.4836 17.5093 94.6916 17.596C94.917 17.6653 95.1943 17.7173 95.5236 17.752C95.853 17.7867 96.191 17.804 96.5376 17.804H96.9276V19H90.9736V17.804H91.1036C91.589 17.804 91.9703 17.7347 92.2476 17.596C92.525 17.4573 92.7503 17.1453 92.9236 16.66L98.4876 0.539999H101.114L106.886 17.076C107.007 17.4053 107.206 17.6133 107.484 17.7C107.778 17.7693 108.142 17.804 108.576 17.804H108.706V19H101.972V17.804H102.414C102.743 17.804 103.081 17.7953 103.428 17.778C103.774 17.7607 104.06 17.7347 104.286 17.7C104.511 17.648 104.624 17.596 104.624 17.544L99.1116 1.528Z" fill="#262626"/>
</svg>
