<svg width="135" height="41" viewBox="0 0 135 41" fill="none" xmlns="http://www.w3.org/2000/svg">
<path d="M7.50363 34.803C7.50363 34.8883 7.57829 34.9523 7.72763 34.995C7.87696 35.0163 8.06896 35.0483 8.30363 35.091C8.55963 35.1336 8.83696 35.1656 9.13563 35.187C9.43429 35.187 9.72229 35.187 9.99963 35.187H10.8316V36.627H1.51963V35.187H1.83963C2.62896 35.187 3.27963 35.1123 3.79163 34.963C4.30363 34.8136 4.55963 34.5043 4.55963 34.035V16.499C4.55963 16.0296 4.30363 15.7203 3.79163 15.571C3.27963 15.4216 2.62896 15.347 1.83963 15.347H1.51963V13.907H10.9596C13.6263 13.907 15.6956 14.515 17.1676 15.731C18.6396 16.9256 19.3756 18.5363 19.3756 20.563C19.3756 21.9283 19.0236 23.1336 18.3196 24.179C17.637 25.203 16.6556 26.0136 15.3756 26.611C14.0956 27.2083 12.5703 27.507 10.7996 27.507H6.54363V25.747H10.7356C11.973 25.747 12.9863 25.5336 13.7756 25.107C14.5863 24.6803 15.1836 24.083 15.5676 23.315C15.973 22.547 16.1756 21.6403 16.1756 20.595C16.1756 19.5496 15.9836 18.675 15.5996 17.971C15.2156 17.2456 14.629 16.691 13.8396 16.307C13.0716 15.923 12.0903 15.731 10.8956 15.731H7.50363V34.803ZM30.8576 13.907V15.347H30.5056C29.695 15.347 29.023 15.4216 28.4896 15.571C27.9563 15.699 27.6896 15.987 27.6896 16.435V34.803H32.4256C33.343 34.803 34.079 34.771 34.6336 34.707C35.2096 34.6216 35.647 34.483 35.9456 34.291C36.2443 34.0776 36.4043 33.779 36.4256 33.395L36.7456 29.459H38.5696V36.627H21.6736V35.187H22.0256C22.7936 35.187 23.4336 35.1123 23.9456 34.963C24.4576 34.8136 24.7136 34.5043 24.7136 34.035V16.499C24.7136 16.0296 24.4576 15.7203 23.9456 15.571C23.4336 15.4216 22.7936 15.347 22.0256 15.347H21.6736V13.907H30.8576ZM46.0294 27.059H55.6294L55.6614 28.787H45.8054L46.0294 27.059ZM50.3494 15.155L50.8934 16.019L44.5254 34.579C44.5254 34.6856 44.6534 34.7923 44.9094 34.899C45.1654 34.9843 45.496 35.059 45.9014 35.123C46.3067 35.1656 46.7227 35.187 47.1494 35.187H47.6614V36.627H40.3654V35.187H40.5254C41.1014 35.187 41.56 35.1016 41.9014 34.931C42.264 34.739 42.552 34.3443 42.7654 33.747L49.6454 13.907H52.8134L59.9494 34.259C60.0987 34.6643 60.344 34.9203 60.6854 35.027C61.048 35.1336 61.4854 35.187 61.9974 35.187H62.1574V36.627H53.9014V35.187H54.4454C54.8507 35.187 55.256 35.1763 55.6614 35.155C56.088 35.1336 56.44 35.1016 56.7174 35.059C57.016 34.995 57.1654 34.931 57.1654 34.867L50.3494 15.155ZM70.5179 15.731C69.8352 15.731 69.2379 15.7523 68.7259 15.795C68.2352 15.8163 67.8299 15.8803 67.5099 15.987C67.1899 16.0936 66.9445 16.243 66.7739 16.435C66.6245 16.6056 66.5392 16.8403 66.5179 17.139L66.1979 20.179H64.4699V13.907H80.4379V15.891L66.0379 36.051L65.5579 34.803H74.5179C75.4352 34.803 76.1819 34.771 76.7579 34.707C77.3339 34.6216 77.7605 34.483 78.0379 34.291C78.3365 34.0776 78.5072 33.779 78.5499 33.395L78.8699 29.843H80.6299V36.627H63.9259V34.547L77.9739 14.867L78.6139 15.731H70.5179ZM83.7361 36.627V35.187H84.0881C84.6215 35.187 85.0801 35.155 85.4641 35.091C85.8695 35.0056 86.1895 34.8776 86.4241 34.707C86.6588 34.515 86.7761 34.259 86.7761 33.939V16.499C86.7761 16.179 86.6588 15.9443 86.4241 15.795C86.1895 15.6243 85.8695 15.507 85.4641 15.443C85.0801 15.379 84.6215 15.347 84.0881 15.347H83.7361V13.907H91.3201L97.7841 33.875L97.1761 33.779L103.8 13.907H111.256V15.347H110.904C110.413 15.347 109.955 15.379 109.528 15.443C109.123 15.507 108.803 15.6243 108.568 15.795C108.333 15.9443 108.216 16.179 108.216 16.499V34.035C108.216 34.3336 108.333 34.5683 108.568 34.739C108.803 34.9096 109.123 35.027 109.528 35.091C109.955 35.155 110.413 35.187 110.904 35.187H111.256V36.627H102.488V35.187H102.776C103.181 35.187 103.565 35.1763 103.928 35.155C104.312 35.1336 104.621 35.1016 104.856 35.059C105.112 34.995 105.24 34.931 105.24 34.867V14.547L105.56 14.611L97.9441 36.691H96.0561L88.4721 14.579L88.7921 14.643V34.771C88.7921 34.8563 88.9308 34.931 89.2081 34.995C89.4855 35.059 89.8268 35.1123 90.2321 35.155C90.6588 35.1763 91.0428 35.187 91.3841 35.187H91.5441V36.627H83.7361ZM118.592 27.059H128.192L128.224 28.787H118.368L118.592 27.059ZM122.912 15.155L123.456 16.019L117.088 34.579C117.088 34.6856 117.216 34.7923 117.472 34.899C117.728 34.9843 118.059 35.059 118.464 35.123C118.869 35.1656 119.285 35.187 119.712 35.187H120.224V36.627H112.928V35.187H113.088C113.664 35.187 114.123 35.1016 114.464 34.931C114.827 34.739 115.115 34.3443 115.328 33.747L122.208 13.907H125.376L132.512 34.259C132.661 34.6643 132.907 34.9203 133.248 35.027C133.611 35.1336 134.048 35.187 134.56 35.187H134.72V36.627H126.464V35.187H127.008C127.413 35.187 127.819 35.1763 128.224 35.155C128.651 35.1336 129.003 35.1016 129.28 35.059C129.579 34.995 129.728 34.931 129.728 34.867L122.912 15.155Z" fill="white"/>
<path d="M45.2444 7V6.769C45.4217 6.75967 45.543 6.72 45.6084 6.65C45.6737 6.57533 45.7087 6.475 45.7134 6.349C45.7227 6.21833 45.7274 6.07133 45.7274 5.908V2.884C45.7274 2.79067 45.7297 2.702 45.7344 2.618C45.739 2.52933 45.7437 2.45 45.7484 2.38C45.6644 2.38467 45.5804 2.38933 45.4964 2.394C45.4124 2.39867 45.3284 2.40333 45.2444 2.408V2.1H49.8014V2.331C49.6287 2.33567 49.5074 2.37533 49.4374 2.45C49.372 2.52467 49.3347 2.625 49.3254 2.751C49.3207 2.877 49.3184 3.024 49.3184 3.192V6.167C49.3184 6.293 49.316 6.40267 49.3114 6.496C49.3114 6.58467 49.3067 6.65933 49.2974 6.72C49.3814 6.71533 49.4654 6.71067 49.5494 6.706C49.6334 6.70133 49.7174 6.69667 49.8014 6.692V7H48.2194V6.769C48.3967 6.75967 48.518 6.72 48.5834 6.65C48.6534 6.57533 48.6907 6.475 48.6954 6.349C48.7047 6.21833 48.7094 6.07133 48.7094 5.908V2.373L46.8194 2.401C46.6794 2.40567 46.5744 2.43367 46.5044 2.485C46.439 2.53167 46.3947 2.597 46.3714 2.681C46.3527 2.765 46.341 2.863 46.3364 2.975V6.167C46.3364 6.293 46.334 6.40267 46.3294 6.496C46.3294 6.58467 46.3247 6.65933 46.3154 6.72C46.3994 6.71533 46.4834 6.71067 46.5674 6.706C46.6514 6.70133 46.7354 6.69667 46.8194 6.692V7H45.2444ZM50.1426 7V6.769C50.2826 6.769 50.3899 6.73167 50.4646 6.657C50.5392 6.58233 50.5999 6.47967 50.6466 6.349C50.6979 6.21833 50.7562 6.06667 50.8216 5.894L52.2636 1.967H52.4316L53.9926 5.95C54.0299 6.048 54.0719 6.174 54.1186 6.328C54.1652 6.482 54.1839 6.61267 54.1746 6.72C54.2539 6.71533 54.3332 6.71067 54.4126 6.706C54.4919 6.70133 54.5712 6.69667 54.6506 6.692V7H53.0476V6.769C53.2249 6.76433 53.3416 6.72467 53.3976 6.65C53.4536 6.57533 53.4746 6.48667 53.4606 6.384C53.4466 6.28133 53.4232 6.188 53.3906 6.104L53.1456 5.446L51.3256 5.488L51.0806 6.237C51.0479 6.349 51.0176 6.43767 50.9896 6.503C50.9662 6.56833 50.9382 6.64067 50.9056 6.72C50.9989 6.71533 51.0899 6.71067 51.1786 6.706C51.2719 6.70133 51.3629 6.69667 51.4516 6.692V7H50.1426ZM51.4306 5.187H53.0476L52.5506 3.85C52.4992 3.70533 52.4456 3.563 52.3896 3.423C52.3382 3.27833 52.2869 3.13367 52.2356 2.989H52.2216C52.1749 3.11967 52.1259 3.25033 52.0746 3.381C52.0279 3.51167 51.9789 3.64467 51.9276 3.78L51.4306 5.187ZM54.9514 6.769C55.1287 6.75967 55.2501 6.72 55.3154 6.65C55.3807 6.57533 55.4157 6.475 55.4204 6.349C55.4297 6.21833 55.4344 6.07133 55.4344 5.908V2.884C55.4344 2.79067 55.4367 2.702 55.4414 2.618C55.4461 2.52933 55.4507 2.45 55.4554 2.38C55.3714 2.38467 55.2874 2.38933 55.2034 2.394C55.1194 2.39867 55.0354 2.40333 54.9514 2.408V2.1C55.1987 2.09533 55.4531 2.093 55.7144 2.093C55.9757 2.08833 56.2417 2.086 56.5124 2.086C56.9651 2.086 57.3454 2.13733 57.6534 2.24C57.9614 2.34267 58.1971 2.49433 58.3604 2.695C58.5237 2.89567 58.6124 3.14533 58.6264 3.444C58.6357 3.626 58.6077 3.81733 58.5424 4.018C58.4817 4.214 58.3651 4.40067 58.1924 4.578C58.0244 4.75067 57.7864 4.89067 57.4784 4.998C57.1704 5.10533 56.7761 5.159 56.2954 5.159C56.2767 5.159 56.2417 5.159 56.1904 5.159C56.1391 5.159 56.0901 5.15667 56.0434 5.152V6.167C56.0434 6.293 56.0411 6.40267 56.0364 6.496C56.0364 6.58467 56.0317 6.65933 56.0224 6.72C56.0971 6.71533 56.1694 6.71067 56.2394 6.706C56.3094 6.70133 56.3794 6.699 56.4494 6.699C56.5241 6.69433 56.5964 6.68967 56.6664 6.685V7H54.9514V6.769ZM56.0434 4.865C56.1321 4.87433 56.2067 4.88133 56.2674 4.886C56.3327 4.886 56.4097 4.886 56.4984 4.886C56.7644 4.886 57.0071 4.83467 57.2264 4.732C57.4457 4.62467 57.6207 4.473 57.7514 4.277C57.8821 4.081 57.9474 3.84767 57.9474 3.577C57.9474 3.35767 57.9124 3.171 57.8424 3.017C57.7724 2.85833 57.6721 2.73233 57.5414 2.639C57.4154 2.541 57.2637 2.471 57.0864 2.429C56.9091 2.38233 56.7131 2.359 56.4984 2.359C56.3351 2.359 56.2207 2.394 56.1554 2.464C56.0947 2.534 56.0597 2.632 56.0504 2.758C56.0457 2.87933 56.0434 3.024 56.0434 3.192V4.865ZM59.1965 7V6.769C59.3739 6.75967 59.4952 6.72 59.5605 6.65C59.6259 6.57533 59.6609 6.475 59.6655 6.349C59.6749 6.21833 59.6795 6.07133 59.6795 5.908V2.884C59.6795 2.79067 59.6819 2.702 59.6865 2.618C59.6912 2.52933 59.6959 2.45 59.7005 2.38C59.6165 2.38467 59.5325 2.38933 59.4485 2.394C59.3645 2.39867 59.2805 2.40333 59.1965 2.408V2.1H60.7715V2.331C60.5989 2.33567 60.4775 2.37533 60.4075 2.45C60.3422 2.52467 60.3049 2.625 60.2955 2.751C60.2909 2.877 60.2885 3.024 60.2885 3.192V4.34H60.8135L61.6885 2.961C61.7492 2.86767 61.8239 2.765 61.9125 2.653C62.0012 2.541 62.0922 2.44767 62.1855 2.373C62.1155 2.37767 62.0432 2.38 61.9685 2.38C61.8985 2.38 61.8285 2.38233 61.7585 2.387V2.1H63.2635V2.331C63.0675 2.345 62.8925 2.37767 62.7385 2.429C62.5845 2.48033 62.4375 2.57133 62.2975 2.702C62.1575 2.828 62.0082 3.01933 61.8495 3.276L61.1635 4.368C61.2989 4.44733 61.4085 4.54067 61.4925 4.648C61.5765 4.75067 61.6605 4.85567 61.7445 4.963L62.5285 6.006C62.7059 6.23933 62.8505 6.412 62.9625 6.524C63.0792 6.63133 63.1819 6.699 63.2705 6.727C63.3639 6.755 63.4595 6.769 63.5575 6.769V7H62.7035C62.6569 7 62.5939 6.96733 62.5145 6.902C62.4399 6.83667 62.3582 6.75267 62.2695 6.65C62.1809 6.54267 62.0899 6.43067 61.9965 6.314L61.1565 5.18C61.0679 5.06333 60.9792 4.95367 60.8905 4.851C60.8019 4.74367 60.7155 4.66433 60.6315 4.613L60.2885 4.62V6.167C60.2885 6.293 60.2862 6.40267 60.2815 6.496C60.2815 6.58467 60.2769 6.65933 60.2675 6.72C60.3515 6.71533 60.4355 6.71067 60.5195 6.706C60.6035 6.70133 60.6875 6.69667 60.7715 6.692V7H59.1965ZM63.7444 5.005V4.515H66.2294V4.977L63.7444 5.005ZM69.5142 7.112C69.0709 7.112 68.6905 7.03733 68.3732 6.888C68.0559 6.73867 67.7969 6.54033 67.5962 6.293C67.4002 6.041 67.2555 5.76333 67.1622 5.46C67.0689 5.15667 67.0222 4.85333 67.0222 4.55C67.0222 4.256 67.0712 3.95967 67.1692 3.661C67.2672 3.35767 67.4165 3.08 67.6172 2.828C67.8225 2.576 68.0769 2.373 68.3802 2.219C68.6882 2.065 69.0475 1.988 69.4582 1.988C69.8875 1.988 70.2585 2.065 70.5712 2.219C70.8839 2.373 71.1405 2.57833 71.3412 2.835C71.5465 3.087 71.6982 3.36233 71.7962 3.661C71.8989 3.95967 71.9502 4.256 71.9502 4.55C71.9502 4.83933 71.9012 5.13567 71.8032 5.439C71.7052 5.73767 71.5535 6.01533 71.3482 6.272C71.1475 6.524 70.8955 6.727 70.5922 6.881C70.2889 7.035 69.9295 7.112 69.5142 7.112ZM69.5282 6.825C69.8175 6.825 70.0695 6.76433 70.2842 6.643C70.4989 6.517 70.6762 6.35133 70.8162 6.146C70.9609 5.936 71.0682 5.705 71.1382 5.453C71.2129 5.19633 71.2502 4.93967 71.2502 4.683C71.2502 4.39367 71.2105 4.10667 71.1312 3.822C71.0519 3.53733 70.9352 3.27833 70.7812 3.045C70.6272 2.81167 70.4359 2.625 70.2072 2.485C69.9832 2.34033 69.7265 2.268 69.4372 2.268C69.1479 2.268 68.8935 2.331 68.6742 2.457C68.4595 2.583 68.2799 2.751 68.1352 2.961C67.9952 3.16633 67.8879 3.39733 67.8132 3.654C67.7432 3.906 67.7082 4.16267 67.7082 4.424C67.7082 4.68067 67.7432 4.949 67.8132 5.229C67.8879 5.509 67.9999 5.77033 68.1492 6.013C68.2985 6.25567 68.4875 6.45167 68.7162 6.601C68.9449 6.75033 69.2155 6.825 69.5282 6.825ZM76.1536 3.577C76.1489 3.30167 76.1209 3.073 76.0696 2.891C76.0183 2.709 75.9273 2.57367 75.7966 2.485C75.6706 2.39167 75.4863 2.34733 75.2436 2.352H74.6486L74.6416 6.167C74.6416 6.293 74.6393 6.40267 74.6346 6.496C74.6346 6.58467 74.6299 6.65933 74.6206 6.72C74.7186 6.71533 74.8143 6.71067 74.9076 6.706C75.0056 6.70133 75.1036 6.69667 75.2016 6.692V7H73.5566V6.769C73.7339 6.75967 73.8529 6.71767 73.9136 6.643C73.9789 6.56833 74.0139 6.468 74.0186 6.342C74.0279 6.21133 74.0326 6.06667 74.0326 5.908L74.0396 2.359L73.3186 2.366C73.0246 2.366 72.8169 2.464 72.6956 2.66C72.5743 2.856 72.5136 3.16167 72.5136 3.577H72.2546L72.2966 2.1H76.3776L76.4196 3.577H76.1536ZM79.3991 5.187C79.3991 4.98167 79.3711 4.83467 79.3151 4.746C79.2591 4.65733 79.1705 4.60367 79.0491 4.585C78.9278 4.56633 78.7668 4.56167 78.5661 4.571L78.0551 4.592V6.195C78.0551 6.321 78.0528 6.42833 78.0481 6.517C78.0481 6.60567 78.0435 6.68033 78.0341 6.741L79.3711 6.72C79.5765 6.71533 79.7538 6.68267 79.9031 6.622C80.0525 6.55667 80.1691 6.44467 80.2531 6.286C80.3371 6.12733 80.3791 5.91033 80.3791 5.635H80.6171L80.5751 7H76.9631V6.769C77.1405 6.75967 77.2618 6.72 77.3271 6.65C77.3925 6.57533 77.4275 6.475 77.4321 6.349C77.4415 6.21833 77.4461 6.07133 77.4461 5.908V2.884C77.4461 2.79067 77.4485 2.702 77.4531 2.618C77.4578 2.52933 77.4625 2.45 77.4671 2.38C77.3831 2.38467 77.2991 2.38933 77.2151 2.394C77.1311 2.39867 77.0471 2.40333 76.9631 2.408V2.1H80.3301L80.3651 3.325H80.1341C80.1341 3.04967 80.0921 2.842 80.0081 2.702C79.9241 2.55733 79.8098 2.46167 79.6651 2.415C79.5251 2.36367 79.3665 2.34033 79.1891 2.345L78.5871 2.359C78.4145 2.36367 78.2908 2.39633 78.2161 2.457C78.1415 2.51767 78.0948 2.60867 78.0761 2.73C78.0621 2.84667 78.0551 3.00067 78.0551 3.192V4.312L79.3711 4.319L79.3221 3.717H79.6301V5.187H79.3991ZM81.6256 7.112C81.4576 7.112 81.3083 7.07 81.1776 6.986C81.047 6.89733 80.9816 6.78067 80.9816 6.636C80.9816 6.53333 81.012 6.44933 81.0726 6.384C81.138 6.314 81.222 6.27667 81.3246 6.272C81.4413 6.26267 81.5276 6.29533 81.5836 6.37C81.6396 6.44 81.6676 6.51 81.6676 6.58C81.6676 6.65933 81.6443 6.72233 81.5976 6.769C81.635 6.80633 81.6746 6.825 81.7166 6.825C81.796 6.825 81.887 6.75733 81.9896 6.622C82.097 6.48667 82.1996 6.279 82.2976 5.999C82.3956 5.719 82.4773 5.36667 82.5426 4.942C82.608 4.51267 82.6406 4.00633 82.6406 3.423V2.38H82.4936L81.9826 2.408V2.1H85.4476V2.331C85.275 2.33567 85.1536 2.37533 85.0836 2.45C85.0183 2.52467 84.981 2.625 84.9716 2.751C84.967 2.877 84.9646 3.024 84.9646 3.192V6.167C84.9646 6.293 84.9623 6.40267 84.9576 6.496C84.9576 6.58467 84.953 6.65933 84.9436 6.72C85.0276 6.71533 85.1116 6.71067 85.1956 6.706C85.2796 6.70133 85.3636 6.69667 85.4476 6.692V7H83.8656V6.769C84.043 6.75967 84.1643 6.72 84.2296 6.65C84.2996 6.57533 84.337 6.475 84.3416 6.349C84.351 6.21833 84.3556 6.07133 84.3556 5.908V2.373L83.3686 2.38C83.2006 2.38 83.0956 2.42667 83.0536 2.52C83.0116 2.60867 82.986 2.744 82.9766 2.926C82.9766 3.33667 82.9626 3.74267 82.9346 4.144C82.9066 4.54533 82.8623 4.92567 82.8016 5.285C82.741 5.63967 82.6593 5.95467 82.5566 6.23C82.454 6.50533 82.3256 6.72233 82.1716 6.881C82.0176 7.035 81.8356 7.112 81.6256 7.112ZM87.794 2.331C87.6213 2.33567 87.5 2.37533 87.43 2.45C87.3647 2.52467 87.3273 2.625 87.318 2.751C87.3133 2.877 87.311 3.024 87.311 3.192V4.151L87.878 4.13C88.2653 4.12067 88.5873 4.14867 88.844 4.214C89.1053 4.27467 89.3153 4.368 89.474 4.494C89.6327 4.62 89.7447 4.76933 89.81 4.942C89.88 5.11467 89.915 5.30367 89.915 5.509C89.915 5.83567 89.8427 6.111 89.698 6.335C89.5533 6.55433 89.3573 6.72 89.11 6.832C88.8627 6.944 88.5803 7 88.263 7H86.219V6.769C86.3917 6.76433 86.5107 6.727 86.576 6.657C86.6413 6.58233 86.6787 6.482 86.688 6.356C86.6973 6.22533 86.702 6.076 86.702 5.908V2.884C86.702 2.79067 86.7043 2.702 86.709 2.618C86.7137 2.52933 86.7183 2.45 86.723 2.38C86.639 2.38467 86.555 2.38933 86.471 2.394C86.387 2.39867 86.303 2.40333 86.219 2.408V2.1H87.794V2.331ZM87.311 6.174C87.311 6.3 87.3087 6.40733 87.304 6.496C87.304 6.58467 87.2993 6.65933 87.29 6.72C87.3647 6.72467 87.4533 6.72933 87.556 6.734C87.6633 6.734 87.7613 6.734 87.85 6.734C87.9433 6.734 88.004 6.734 88.032 6.734C88.3913 6.734 88.6807 6.63833 88.9 6.447C89.124 6.25567 89.236 5.95233 89.236 5.537C89.236 5.23833 89.18 5.00733 89.068 4.844C88.956 4.68067 88.809 4.56633 88.627 4.501C88.445 4.431 88.2467 4.396 88.032 4.396C87.892 4.396 87.7637 4.39833 87.647 4.403C87.535 4.403 87.423 4.40767 87.311 4.417V6.174Z" fill="white"/>
</svg>
