<svg width="135" height="37" viewBox="0 0 135 37" fill="none" xmlns="http://www.w3.org/2000/svg">
<path d="M7.50363 30.8029V11.7309H10.8956C12.0903 11.7309 13.0716 11.9229 13.8396 12.3069C14.629 12.6909 15.2156 13.2456 15.5996 13.9709C15.9836 14.6749 16.1756 15.5496 16.1756 16.5949C16.1756 17.6403 15.973 18.5469 15.5676 19.3149C15.1836 20.0829 14.5863 20.6803 13.7756 21.1069C12.9863 21.5336 11.973 21.7469 10.7356 21.7469H6.54363V23.5069H10.7996C12.5703 23.5069 14.0956 23.2083 15.3756 22.6109C16.6556 22.0136 17.637 21.2029 18.3196 20.1789C19.0236 19.1336 19.3756 17.9283 19.3756 16.5629C19.3756 14.5363 18.6396 12.9256 17.1676 11.7309C15.6956 10.5149 13.6263 9.90692 10.9596 9.90692H1.51963V11.3469H1.83963C2.62896 11.3469 3.27963 11.4216 3.79163 11.5709C4.30363 11.7203 4.55963 12.0296 4.55963 12.4989V30.0349C4.55963 30.5043 4.30363 30.8136 3.79163 30.9629C3.27963 31.1123 2.62896 31.1869 1.83963 31.1869H1.51963V32.6269H10.8316V31.1869H9.99963C9.72229 31.1869 9.43429 31.1869 9.13563 31.1869C8.83696 31.1656 8.55963 31.1336 8.30363 31.0909C8.06896 31.0483 7.87696 31.0163 7.72763 30.9949C7.57829 30.9523 7.50363 30.8883 7.50363 30.8029ZM30.8576 9.90692H21.6736V11.3469H22.0256C22.7936 11.3469 23.4336 11.4216 23.9456 11.5709C24.4576 11.7203 24.7136 12.0296 24.7136 12.4989V30.0349C24.7136 30.5043 24.4576 30.8136 23.9456 30.9629C23.4336 31.1123 22.7936 31.1869 22.0256 31.1869H21.6736V32.6269H38.5696V25.4589H36.7456L36.4256 29.3949C36.4043 29.7789 36.2443 30.0776 35.9456 30.2909C35.647 30.4829 35.2096 30.6216 34.6336 30.7069C34.079 30.7709 33.343 30.8029 32.4256 30.8029H27.6896V12.4349C27.6896 11.9869 27.9563 11.6989 28.4896 11.5709C29.023 11.4216 29.695 11.3469 30.5056 11.3469H30.8576V9.90692ZM46.0294 23.0589H55.6294L55.6614 24.7869H45.8054L46.0294 23.0589ZM50.3494 11.1549L50.8934 12.0189L44.5254 30.5789C44.5254 30.6856 44.6534 30.7923 44.9094 30.8989C45.1654 30.9843 45.496 31.0589 45.9014 31.1229C46.3067 31.1656 46.7227 31.1869 47.1494 31.1869H47.6614V32.6269H40.3654V31.1869H40.5254C41.1014 31.1869 41.56 31.1016 41.9014 30.9309C42.264 30.7389 42.552 30.3443 42.7654 29.7469L49.6454 9.90692H52.8134L59.9494 30.2589C60.0987 30.6643 60.344 30.9203 60.6854 31.0269C61.048 31.1336 61.4854 31.1869 61.9974 31.1869H62.1574V32.6269H53.9014V31.1869H54.4454C54.8507 31.1869 55.256 31.1763 55.6614 31.1549C56.088 31.1336 56.44 31.1016 56.7174 31.0589C57.016 30.9949 57.1654 30.9309 57.1654 30.8669L50.3494 11.1549ZM70.5179 11.7309C69.8352 11.7309 69.2379 11.7523 68.7259 11.7949C68.2352 11.8163 67.8299 11.8803 67.5099 11.9869C67.1899 12.0936 66.9445 12.2429 66.7739 12.4349C66.6245 12.6056 66.5392 12.8403 66.5179 13.1389L66.1979 16.1789H64.4699V9.90692H80.4379V11.8909L66.0379 32.0509L65.5579 30.8029H74.5179C75.4352 30.8029 76.1819 30.7709 76.7579 30.7069C77.3339 30.6216 77.7605 30.4829 78.0379 30.2909C78.3365 30.0776 78.5072 29.7789 78.5499 29.3949L78.8699 25.8429H80.6299V32.6269H63.9259V30.5469L77.9739 10.8669L78.6139 11.7309H70.5179ZM83.7361 32.6269V31.1869H84.0881C84.6215 31.1869 85.0801 31.1549 85.4641 31.0909C85.8695 31.0056 86.1895 30.8776 86.4241 30.7069C86.6588 30.5149 86.7761 30.2589 86.7761 29.9389V12.4989C86.7761 12.1789 86.6588 11.9443 86.4241 11.7949C86.1895 11.6243 85.8695 11.5069 85.4641 11.4429C85.0801 11.3789 84.6215 11.3469 84.0881 11.3469H83.7361V9.90692H91.3201L97.7841 29.8749L97.1761 29.7789L103.8 9.90692H111.256V11.3469H110.904C110.413 11.3469 109.955 11.3789 109.528 11.4429C109.123 11.5069 108.803 11.6243 108.568 11.7949C108.333 11.9443 108.216 12.1789 108.216 12.4989V30.0349C108.216 30.3336 108.333 30.5683 108.568 30.7389C108.803 30.9096 109.123 31.0269 109.528 31.0909C109.955 31.1549 110.413 31.1869 110.904 31.1869H111.256V32.6269H102.488V31.1869H102.776C103.181 31.1869 103.565 31.1763 103.928 31.1549C104.312 31.1336 104.621 31.1016 104.856 31.0589C105.112 30.9949 105.24 30.9309 105.24 30.8669V10.5469L105.56 10.6109L97.9441 32.6909H96.0561L88.4721 10.5789L88.7921 10.6429V30.7709C88.7921 30.8563 88.9308 30.9309 89.2081 30.9949C89.4855 31.0589 89.8268 31.1123 90.2321 31.1549C90.6588 31.1763 91.0428 31.1869 91.3841 31.1869H91.5441V32.6269H83.7361ZM118.592 23.0589H128.192L128.224 24.7869H118.368L118.592 23.0589ZM122.912 11.1549L123.456 12.0189L117.088 30.5789C117.088 30.6856 117.216 30.7923 117.472 30.8989C117.728 30.9843 118.059 31.0589 118.464 31.1229C118.869 31.1656 119.285 31.1869 119.712 31.1869H120.224V32.6269H112.928V31.1869H113.088C113.664 31.1869 114.123 31.1016 114.464 30.9309C114.827 30.7389 115.115 30.3443 115.328 29.7469L122.208 9.90692H125.376L132.512 30.2589C132.661 30.6643 132.907 30.9203 133.248 31.0269C133.611 31.1336 134.048 31.1869 134.56 31.1869H134.72V32.6269H126.464V31.1869H127.008C127.413 31.1869 127.819 31.1763 128.224 31.1549C128.651 31.1336 129.003 31.1016 129.28 31.0589C129.579 30.9949 129.728 30.9309 129.728 30.8669L122.912 11.1549Z" fill="white"/>
<path d="M4.96826 2.002V2.562H2.77726V7H2.14726V2.002H4.96826ZM10.0424 4.494C10.0424 4.88133 9.99344 5.23367 9.89544 5.551C9.79744 5.86367 9.65044 6.13433 9.45444 6.363C9.26311 6.59167 9.02277 6.76667 8.73344 6.888C8.44878 7.00933 8.11744 7.07 7.73944 7.07C7.34744 7.07 7.00677 7.00933 6.71744 6.888C6.42811 6.762 6.18777 6.587 5.99644 6.363C5.80511 6.13433 5.66277 5.86133 5.56944 5.544C5.47611 5.22667 5.42944 4.87433 5.42944 4.487C5.42944 3.97367 5.51344 3.52567 5.68144 3.143C5.84944 2.76033 6.10377 2.46167 6.44444 2.247C6.78977 2.03233 7.22377 1.925 7.74644 1.925C8.24577 1.925 8.66577 2.03233 9.00644 2.247C9.34711 2.457 9.60378 2.75567 9.77644 3.143C9.95377 3.52567 10.0424 3.976 10.0424 4.494ZM6.09444 4.494C6.09444 4.914 6.15277 5.27567 6.26944 5.579C6.38611 5.88233 6.56577 6.11567 6.80844 6.279C7.05577 6.44233 7.36611 6.524 7.73944 6.524C8.11744 6.524 8.42544 6.44233 8.66344 6.279C8.90611 6.11567 9.08578 5.88233 9.20244 5.579C9.31911 5.27567 9.37744 4.914 9.37744 4.494C9.37744 3.864 9.24677 3.37167 8.98544 3.017C8.72411 2.65767 8.31111 2.478 7.74644 2.478C7.36844 2.478 7.05577 2.55967 6.80844 2.723C6.56577 2.88167 6.38611 3.11267 6.26944 3.416C6.15277 3.71467 6.09444 4.074 6.09444 4.494ZM13.2922 2.485C13.0262 2.485 12.7859 2.53167 12.5712 2.625C12.3565 2.71367 12.1745 2.84667 12.0252 3.024C11.8759 3.19667 11.7615 3.409 11.6822 3.661C11.6029 3.90833 11.5632 4.18833 11.5632 4.501C11.5632 4.91167 11.6262 5.26867 11.7522 5.572C11.8829 5.87533 12.0742 6.10867 12.3262 6.272C12.5829 6.43533 12.9025 6.517 13.2852 6.517C13.5045 6.517 13.7122 6.49833 13.9082 6.461C14.1042 6.42367 14.2955 6.377 14.4822 6.321V6.867C14.2955 6.937 14.1019 6.98833 13.9012 7.021C13.7052 7.05367 13.4695 7.07 13.1942 7.07C12.6855 7.07 12.2609 6.965 11.9202 6.755C11.5795 6.545 11.3229 6.24633 11.1502 5.859C10.9822 5.47167 10.8982 5.01667 10.8982 4.494C10.8982 4.116 10.9495 3.77067 11.0522 3.458C11.1595 3.14533 11.3135 2.87467 11.5142 2.646C11.7195 2.41733 11.9715 2.24233 12.2702 2.121C12.5689 1.995 12.9119 1.932 13.2992 1.932C13.5559 1.932 13.8032 1.95767 14.0412 2.009C14.2792 2.06033 14.4915 2.13267 14.6782 2.226L14.4262 2.758C14.2722 2.688 14.0995 2.625 13.9082 2.569C13.7215 2.513 13.5162 2.485 13.2922 2.485ZM17.155 7H16.525V2.555H14.964V2.002H18.709V2.555H17.155V7ZM19.4697 2.002H20.0577V4.746C20.0577 4.86267 20.0554 4.991 20.0507 5.131C20.0507 5.26633 20.0484 5.40167 20.0437 5.537C20.039 5.67233 20.032 5.79367 20.0227 5.901C20.018 6.00367 20.0134 6.083 20.0087 6.139H20.0367L22.7877 2.002H23.4877V7H22.8997V4.284C22.8997 4.158 22.902 4.02267 22.9067 3.878C22.9114 3.72867 22.916 3.58633 22.9207 3.451C22.93 3.311 22.937 3.18733 22.9417 3.08C22.9464 2.97267 22.951 2.89333 22.9557 2.842H22.9277L20.1697 7H19.4697V2.002ZM28.6577 7H28.0277V4.669H25.4657V7H24.8357V2.002H25.4657V4.116H28.0277V2.002H28.6577V7ZM30.0312 2.002H30.6192V4.746C30.6192 4.86267 30.6169 4.991 30.6122 5.131C30.6122 5.26633 30.6099 5.40167 30.6052 5.537C30.6005 5.67233 30.5935 5.79367 30.5842 5.901C30.5795 6.00367 30.5749 6.083 30.5702 6.139H30.5982L33.3492 2.002H34.0492V7H33.4612V4.284C33.4612 4.158 33.4635 4.02267 33.4682 3.878C33.4729 3.72867 33.4775 3.58633 33.4822 3.451C33.4915 3.311 33.4985 3.18733 33.5032 3.08C33.5079 2.97267 33.5125 2.89333 33.5172 2.842H33.4892L30.7312 7H30.0312V2.002ZM38.9253 7H38.2953V4.949C38.0246 5.04233 37.7703 5.11933 37.5323 5.18C37.2989 5.236 37.0376 5.264 36.7483 5.264C36.2816 5.264 35.9199 5.15667 35.6633 4.942C35.4066 4.72267 35.2783 4.40767 35.2783 3.997V2.002H35.9083V3.906C35.9083 4.17667 35.9783 4.37967 36.1183 4.515C36.2629 4.64567 36.4939 4.711 36.8113 4.711C37.0866 4.711 37.3339 4.68533 37.5533 4.634C37.7726 4.58267 38.0199 4.51267 38.2953 4.424V2.002H38.9253V7ZM44.107 7H43.477V4.669H40.915V7H40.285V2.002H40.915V4.116H43.477V2.002H44.107V7ZM49.8344 4.494C49.8344 4.88133 49.7854 5.23367 49.6874 5.551C49.5894 5.86367 49.4424 6.13433 49.2464 6.363C49.0551 6.59167 48.8148 6.76667 48.5254 6.888C48.2408 7.00933 47.9094 7.07 47.5314 7.07C47.1394 7.07 46.7988 7.00933 46.5094 6.888C46.2201 6.762 45.9798 6.587 45.7884 6.363C45.5971 6.13433 45.4548 5.86133 45.3614 5.544C45.2681 5.22667 45.2214 4.87433 45.2214 4.487C45.2214 3.97367 45.3054 3.52567 45.4734 3.143C45.6414 2.76033 45.8958 2.46167 46.2364 2.247C46.5818 2.03233 47.0158 1.925 47.5384 1.925C48.0378 1.925 48.4578 2.03233 48.7984 2.247C49.1391 2.457 49.3958 2.75567 49.5684 3.143C49.7458 3.52567 49.8344 3.976 49.8344 4.494ZM45.8864 4.494C45.8864 4.914 45.9448 5.27567 46.0614 5.579C46.1781 5.88233 46.3578 6.11567 46.6004 6.279C46.8478 6.44233 47.1581 6.524 47.5314 6.524C47.9094 6.524 48.2174 6.44233 48.4554 6.279C48.6981 6.11567 48.8778 5.88233 48.9944 5.579C49.1111 5.27567 49.1694 4.914 49.1694 4.494C49.1694 3.864 49.0388 3.37167 48.7774 3.017C48.5161 2.65767 48.1031 2.478 47.5384 2.478C47.1604 2.478 46.8478 2.55967 46.6004 2.723C46.3578 2.88167 46.1781 3.11267 46.0614 3.416C45.9448 3.71467 45.8864 4.074 45.8864 4.494ZM50.8652 4.669H53.0562V5.152H50.8652V4.669ZM54.3328 7V2.002H58.0848V7H57.4618V2.555H54.9628V7H54.3328ZM62.5889 7L61.9869 5.453H60.0059L59.4109 7H58.7739L60.7269 1.981H61.2939L63.2399 7H62.5889ZM61.2379 3.381C61.2239 3.34367 61.2006 3.276 61.1679 3.178C61.1353 3.08 61.1026 2.97967 61.0699 2.877C61.0419 2.76967 61.0186 2.688 60.9999 2.632C60.9766 2.72533 60.9509 2.821 60.9229 2.919C60.8996 3.01233 60.8739 3.09867 60.8459 3.178C60.8226 3.25733 60.8016 3.325 60.7829 3.381L60.2159 4.893H61.7979L61.2379 3.381ZM65.2466 2.002C65.9 2.002 66.376 2.13033 66.6746 2.387C66.9733 2.64367 67.1226 3.00533 67.1226 3.472C67.1226 3.67733 67.0876 3.87567 67.0176 4.067C66.9523 4.25367 66.8426 4.42167 66.6886 4.571C66.5346 4.72033 66.3293 4.83933 66.0726 4.928C65.816 5.012 65.501 5.054 65.1276 5.054H64.5536V7H63.9236V2.002H65.2466ZM65.1906 2.541H64.5536V4.515H65.0576C65.375 4.515 65.6386 4.48233 65.8486 4.417C66.0586 4.347 66.215 4.23733 66.3176 4.088C66.4203 3.93867 66.4716 3.74267 66.4716 3.5C66.4716 3.178 66.369 2.93767 66.1636 2.779C65.9583 2.62033 65.634 2.541 65.1906 2.541ZM71.8089 7H71.0529L68.7919 4.466V7H68.1619V2.002H68.7919V4.424L70.9969 2.002H71.7109L69.5409 4.431L71.8089 7ZM76.7133 4.494C76.7133 4.88133 76.6643 5.23367 76.5663 5.551C76.4683 5.86367 76.3213 6.13433 76.1253 6.363C75.934 6.59167 75.6937 6.76667 75.4043 6.888C75.1197 7.00933 74.7883 7.07 74.4103 7.07C74.0183 7.07 73.6777 7.00933 73.3883 6.888C73.099 6.762 72.8587 6.587 72.6673 6.363C72.476 6.13433 72.3337 5.86133 72.2403 5.544C72.147 5.22667 72.1003 4.87433 72.1003 4.487C72.1003 3.97367 72.1843 3.52567 72.3523 3.143C72.5203 2.76033 72.7747 2.46167 73.1153 2.247C73.4607 2.03233 73.8947 1.925 74.4173 1.925C74.9167 1.925 75.3367 2.03233 75.6773 2.247C76.018 2.457 76.2747 2.75567 76.4473 3.143C76.6247 3.52567 76.7133 3.976 76.7133 4.494ZM72.7653 4.494C72.7653 4.914 72.8237 5.27567 72.9403 5.579C73.057 5.88233 73.2367 6.11567 73.4793 6.279C73.7267 6.44233 74.037 6.524 74.4103 6.524C74.7883 6.524 75.0963 6.44233 75.3343 6.279C75.577 6.11567 75.7567 5.88233 75.8733 5.579C75.99 5.27567 76.0483 4.914 76.0483 4.494C76.0483 3.864 75.9177 3.37167 75.6563 3.017C75.395 2.65767 74.982 2.478 74.4173 2.478C74.0393 2.478 73.7267 2.55967 73.4793 2.723C73.2367 2.88167 73.057 3.11267 72.9403 3.416C72.8237 3.71467 72.7653 4.074 72.7653 4.494ZM79.2491 2.002C79.6644 2.002 80.0121 2.04167 80.2921 2.121C80.5768 2.20033 80.7891 2.331 80.9291 2.513C81.0738 2.695 81.1461 2.93767 81.1461 3.241C81.1461 3.437 81.1088 3.612 81.0341 3.766C80.9641 3.91533 80.8568 4.04133 80.7121 4.144C80.5721 4.242 80.3994 4.30967 80.1941 4.347V4.382C80.4041 4.41467 80.5931 4.47533 80.7611 4.564C80.9338 4.65267 81.0691 4.77867 81.1671 4.942C81.2651 5.10533 81.3141 5.31767 81.3141 5.579C81.3141 5.88233 81.2441 6.14133 81.1041 6.356C80.9641 6.566 80.7634 6.727 80.5021 6.839C80.2454 6.94633 79.9374 7 79.5781 7H77.8211V2.002H79.2491ZM79.3751 4.13C79.8044 4.13 80.0984 4.06233 80.2571 3.927C80.4158 3.787 80.4951 3.58167 80.4951 3.311C80.4951 3.03567 80.3971 2.83967 80.2011 2.723C80.0098 2.60167 79.7018 2.541 79.2771 2.541H78.4511V4.13H79.3751ZM78.4511 4.655V6.468H79.4591C79.9024 6.468 80.2104 6.38167 80.3831 6.209C80.5558 6.03633 80.6421 5.81 80.6421 5.53C80.6421 5.35267 80.6024 5.19867 80.5231 5.068C80.4484 4.93733 80.3201 4.837 80.1381 4.767C79.9608 4.69233 79.7181 4.655 79.4101 4.655H78.4511ZM82.3738 7V2.002H83.0038V4.116H83.7738C84.2405 4.116 84.6068 4.179 84.8728 4.305C85.1435 4.431 85.3348 4.60133 85.4468 4.816C85.5635 5.03067 85.6218 5.271 85.6218 5.537C85.6218 5.831 85.5588 6.08767 85.4328 6.307C85.3115 6.52633 85.1202 6.69667 84.8588 6.818C84.5975 6.93933 84.2615 7 83.8508 7H82.3738ZM83.7948 6.468C84.1962 6.468 84.4925 6.391 84.6838 6.237C84.8752 6.083 84.9708 5.84967 84.9708 5.537C84.9708 5.32233 84.9242 5.152 84.8308 5.026C84.7422 4.9 84.6045 4.809 84.4178 4.753C84.2312 4.697 83.9932 4.669 83.7038 4.669H83.0038V6.468H83.7948ZM86.3918 7V2.002H87.0218V7H86.3918ZM91.7916 0.448C91.7729 0.681333 91.7146 0.877333 91.6166 1.036C91.5233 1.19467 91.3833 1.31367 91.1966 1.393C91.0099 1.47233 90.7673 1.512 90.4686 1.512C90.1653 1.512 89.9203 1.47233 89.7336 1.393C89.5516 1.31367 89.4186 1.197 89.3346 1.043C89.2506 0.884333 89.1993 0.686 89.1806 0.448H89.7546C89.7779 0.7 89.8433 0.870333 89.9506 0.959C90.0626 1.043 90.2399 1.085 90.4826 1.085C90.6973 1.085 90.8653 1.04067 90.9866 0.952C91.1126 0.858666 91.1873 0.690666 91.2106 0.448H91.7916ZM88.3896 2.002H88.9776V4.746C88.9776 4.86267 88.9753 4.991 88.9706 5.131C88.9706 5.26633 88.9683 5.40167 88.9636 5.537C88.9589 5.67233 88.9519 5.79367 88.9426 5.901C88.9379 6.00367 88.9333 6.083 88.9286 6.139H88.9566L91.7076 2.002H92.4076V7H91.8196V4.284C91.8196 4.158 91.8219 4.02267 91.8266 3.878C91.8313 3.72867 91.8359 3.58633 91.8406 3.451C91.8499 3.311 91.8569 3.18733 91.8616 3.08C91.8663 2.97267 91.8709 2.89333 91.8756 2.842H91.8476L89.0896 7H88.3896V2.002ZM99.2689 7H98.5129L96.2519 4.466V7H95.6219V2.002H96.2519V4.424L98.4569 2.002H99.1709L97.0009 4.431L99.2689 7ZM104.173 4.494C104.173 4.88133 104.124 5.23367 104.026 5.551C103.928 5.86367 103.781 6.13433 103.585 6.363C103.394 6.59167 103.154 6.76667 102.864 6.888C102.58 7.00933 102.248 7.07 101.87 7.07C101.478 7.07 101.138 7.00933 100.848 6.888C100.559 6.762 100.319 6.587 100.127 6.363C99.936 6.13433 99.7936 5.86133 99.7003 5.544C99.607 5.22667 99.5603 4.87433 99.5603 4.487C99.5603 3.97367 99.6443 3.52567 99.8123 3.143C99.9803 2.76033 100.235 2.46167 100.575 2.247C100.921 2.03233 101.355 1.925 101.877 1.925C102.377 1.925 102.797 2.03233 103.137 2.247C103.478 2.457 103.735 2.75567 103.907 3.143C104.085 3.52567 104.173 3.976 104.173 4.494ZM100.225 4.494C100.225 4.914 100.284 5.27567 100.4 5.579C100.517 5.88233 100.697 6.11567 100.939 6.279C101.187 6.44233 101.497 6.524 101.87 6.524C102.248 6.524 102.556 6.44233 102.794 6.279C103.037 6.11567 103.217 5.88233 103.333 5.579C103.45 5.27567 103.508 4.914 103.508 4.494C103.508 3.864 103.378 3.37167 103.116 3.017C102.855 2.65767 102.442 2.478 101.877 2.478C101.499 2.478 101.187 2.55967 100.939 2.723C100.697 2.88167 100.517 3.11267 100.4 3.416C100.284 3.71467 100.225 4.074 100.225 4.494ZM107.486 7L105.841 2.618H105.813C105.822 2.71133 105.829 2.83033 105.834 2.975C105.843 3.11967 105.85 3.27833 105.855 3.451C105.86 3.619 105.862 3.79167 105.862 3.969V7H105.281V2.002H106.212L107.752 6.097H107.78L109.348 2.002H110.272V7H109.649V3.927C109.649 3.76367 109.651 3.60267 109.656 3.444C109.661 3.28067 109.668 3.129 109.677 2.989C109.686 2.84433 109.693 2.723 109.698 2.625H109.67L108.004 7H107.486ZM111.632 7V2.002H115.384V7H114.761V2.555H112.262V7H111.632ZM120.35 7H119.72V2.555H118.138C118.105 2.81167 118.07 3.08233 118.033 3.367C117.995 3.647 117.956 3.92467 117.914 4.2C117.876 4.47533 117.839 4.73433 117.802 4.977C117.764 5.21967 117.727 5.432 117.69 5.614C117.629 5.92667 117.554 6.19267 117.466 6.412C117.377 6.63133 117.258 6.797 117.109 6.909C116.964 7.021 116.773 7.077 116.535 7.077C116.455 7.077 116.374 7.06767 116.29 7.049C116.21 7.035 116.14 7.01633 116.08 6.993V6.468C116.131 6.49133 116.189 6.51233 116.255 6.531C116.32 6.545 116.39 6.552 116.465 6.552C116.605 6.552 116.714 6.496 116.794 6.384C116.878 6.26733 116.943 6.125 116.99 5.957C117.036 5.78433 117.076 5.614 117.109 5.446C117.137 5.31067 117.169 5.131 117.207 4.907C117.244 4.67833 117.284 4.41233 117.326 4.109C117.372 3.80567 117.419 3.47667 117.466 3.122C117.517 2.76267 117.566 2.38933 117.613 2.002H120.35V7ZM124.501 7H121.708V2.002H124.501V2.555H122.338V4.116H124.375V4.662H122.338V6.447H124.501V7ZM129.244 7H128.488L126.227 4.466V7H125.597V2.002H126.227V4.424L128.432 2.002H129.146L126.976 4.431L129.244 7ZM131.93 2.485C131.664 2.485 131.424 2.53167 131.209 2.625C130.994 2.71367 130.812 2.84667 130.663 3.024C130.514 3.19667 130.399 3.409 130.32 3.661C130.241 3.90833 130.201 4.18833 130.201 4.501C130.201 4.91167 130.264 5.26867 130.39 5.572C130.521 5.87533 130.712 6.10867 130.964 6.272C131.221 6.43533 131.54 6.517 131.923 6.517C132.142 6.517 132.35 6.49833 132.546 6.461C132.742 6.42367 132.933 6.377 133.12 6.321V6.867C132.933 6.937 132.74 6.98833 132.539 7.021C132.343 7.05367 132.107 7.07 131.832 7.07C131.323 7.07 130.899 6.965 130.558 6.755C130.217 6.545 129.961 6.24633 129.788 5.859C129.62 5.47167 129.536 5.01667 129.536 4.494C129.536 4.116 129.587 3.77067 129.69 3.458C129.797 3.14533 129.951 2.87467 130.152 2.646C130.357 2.41733 130.609 2.24233 130.908 2.121C131.207 1.995 131.55 1.932 131.937 1.932C132.194 1.932 132.441 1.95767 132.679 2.009C132.917 2.06033 133.129 2.13267 133.316 2.226L133.064 2.758C132.91 2.688 132.737 2.625 132.546 2.569C132.359 2.513 132.154 2.485 131.93 2.485Z" fill="white"/>
</svg>
