<svg width="48" height="48" viewBox="0 0 48 48" fill="none" xmlns="http://www.w3.org/2000/svg">
<path d="M33 10.875H15C14.7016 10.875 14.4155 10.9935 14.2045 11.2045C13.9935 11.4155 13.875 11.7016 13.875 12V21C13.875 21.2984 13.9935 21.5845 14.2045 21.7955C14.4155 22.0065 14.7016 22.125 15 22.125H33C33.2984 22.125 33.5845 22.0065 33.7955 21.7955C34.0065 21.5845 34.125 21.2984 34.125 21V12C34.125 11.7016 34.0065 11.4155 33.7955 11.2045C33.5845 10.9935 33.2984 10.875 33 10.875ZM31.875 19.875H16.125V13.125H31.875V19.875ZM37.5 4.875H10.5C9.80381 4.875 9.13613 5.15156 8.64384 5.64384C8.15156 6.13613 7.875 6.80381 7.875 7.5V40.5C7.875 41.1962 8.15156 41.8639 8.64384 42.3562C9.13613 42.8484 9.80381 43.125 10.5 43.125H37.5C38.1962 43.125 38.8639 42.8484 39.3562 42.3562C39.8484 41.8639 40.125 41.1962 40.125 40.5V7.5C40.125 6.80381 39.8484 6.13613 39.3562 5.64384C38.8639 5.15156 38.1962 4.875 37.5 4.875ZM37.875 40.5C37.875 40.5995 37.8355 40.6948 37.7652 40.7652C37.6948 40.8355 37.5995 40.875 37.5 40.875H10.5C10.4005 40.875 10.3052 40.8355 10.2348 40.7652C10.1645 40.6948 10.125 40.5995 10.125 40.5V7.5C10.125 7.40054 10.1645 7.30516 10.2348 7.23483C10.3052 7.16451 10.4005 7.125 10.5 7.125H37.5C37.5995 7.125 37.6948 7.16451 37.7652 7.23483C37.8355 7.30516 37.875 7.40054 37.875 7.5V40.5ZM18.375 27.75C18.375 28.1208 18.265 28.4834 18.059 28.7917C17.853 29.1 17.5601 29.3404 17.2175 29.4823C16.8749 29.6242 16.4979 29.6613 16.1342 29.589C15.7705 29.5166 15.4364 29.3381 15.1742 29.0758C14.912 28.8136 14.7334 28.4795 14.661 28.1158C14.5887 27.7521 14.6258 27.3751 14.7677 27.0325C14.9096 26.6899 15.15 26.397 15.4583 26.191C15.7666 25.985 16.1292 25.875 16.5 25.875C16.9973 25.875 17.4742 26.0725 17.8258 26.4242C18.1775 26.7758 18.375 27.2527 18.375 27.75ZM25.875 27.75C25.875 28.1208 25.765 28.4834 25.559 28.7917C25.353 29.1 25.0601 29.3404 24.7175 29.4823C24.3749 29.6242 23.9979 29.6613 23.6342 29.589C23.2705 29.5166 22.9364 29.3381 22.6742 29.0758C22.412 28.8136 22.2334 28.4795 22.161 28.1158C22.0887 27.7521 22.1258 27.3751 22.2677 27.0325C22.4096 26.6899 22.65 26.397 22.9583 26.191C23.2666 25.985 23.6292 25.875 24 25.875C24.4973 25.875 24.9742 26.0725 25.3258 26.4242C25.6775 26.7758 25.875 27.2527 25.875 27.75ZM33.375 27.75C33.375 28.1208 33.265 28.4834 33.059 28.7917C32.853 29.1 32.5601 29.3404 32.2175 29.4823C31.8749 29.6242 31.4979 29.6613 31.1342 29.589C30.7705 29.5166 30.4364 29.3381 30.1742 29.0758C29.9119 28.8136 29.7334 28.4795 29.661 28.1158C29.5887 27.7521 29.6258 27.3751 29.7677 27.0325C29.9096 26.6899 30.15 26.397 30.4583 26.191C30.7666 25.985 31.1292 25.875 31.5 25.875C31.9973 25.875 32.4742 26.0725 32.8258 26.4242C33.1775 26.7758 33.375 27.2527 33.375 27.75ZM18.375 35.25C18.375 35.6208 18.265 35.9834 18.059 36.2917C17.853 36.6 17.5601 36.8404 17.2175 36.9823C16.8749 37.1242 16.4979 37.1613 16.1342 37.089C15.7705 37.0166 15.4364 36.8381 15.1742 36.5758C14.912 36.3136 14.7334 35.9795 14.661 35.6158C14.5887 35.2521 14.6258 34.8751 14.7677 34.5325C14.9096 34.1899 15.15 33.897 15.4583 33.691C15.7666 33.485 16.1292 33.375 16.5 33.375C16.9973 33.375 17.4742 33.5725 17.8258 33.9242C18.1775 34.2758 18.375 34.7527 18.375 35.25ZM25.875 35.25C25.875 35.6208 25.765 35.9834 25.559 36.2917C25.353 36.6 25.0601 36.8404 24.7175 36.9823C24.3749 37.1242 23.9979 37.1613 23.6342 37.089C23.2705 37.0166 22.9364 36.8381 22.6742 36.5758C22.412 36.3136 22.2334 35.9795 22.161 35.6158C22.0887 35.2521 22.1258 34.8751 22.2677 34.5325C22.4096 34.1899 22.65 33.897 22.9583 33.691C23.2666 33.485 23.6292 33.375 24 33.375C24.4973 33.375 24.9742 33.5725 25.3258 33.9242C25.6775 34.2758 25.875 34.7527 25.875 35.25ZM33.375 35.25C33.375 35.6208 33.265 35.9834 33.059 36.2917C32.853 36.6 32.5601 36.8404 32.2175 36.9823C31.8749 37.1242 31.4979 37.1613 31.1342 37.089C30.7705 37.0166 30.4364 36.8381 30.1742 36.5758C29.9119 36.3136 29.7334 35.9795 29.661 35.6158C29.5887 35.2521 29.6258 34.8751 29.7677 34.5325C29.9096 34.1899 30.15 33.897 30.4583 33.691C30.7666 33.485 31.1292 33.375 31.5 33.375C31.9973 33.375 32.4742 33.5725 32.8258 33.9242C33.1775 34.2758 33.375 34.7527 33.375 35.25Z" fill="white"/>
</svg>
