<svg width="129" height="129" viewBox="0 0 129 129" fill="none" xmlns="http://www.w3.org/2000/svg">
<g opacity="0.2">
<path d="M108.325 27.9957C115.738 36.9724 120.139 47.6038 121.236 59.1779C121.489 61.8096 121.489 67.0418 121.236 69.6491C120.101 81.4361 115.8 91.8051 108.211 100.994L108.211 100.994C106.64 102.894 102.856 106.666 100.932 108.261L100.932 108.261C93.116 114.716 83.936 118.966 74.1358 120.656C70.574 121.275 69.2308 121.363 64.3008 121.363L64.2993 121.363C60.1238 121.351 59.3452 121.326 57.4226 121.071L57.4211 121.071C46.0927 119.534 36.5555 115.384 27.8577 108.212L27.8572 108.211C25.9571 106.64 22.1851 102.856 20.5909 100.932L20.5903 100.932C14.1361 93.1161 9.88576 83.9361 8.19561 74.136C7.57669 70.574 7.4883 69.2309 7.48829 64.3008L7.4883 64.2993C7.5008 60.1237 7.52549 59.3451 7.78012 57.4226L7.78034 57.421C9.31767 46.0926 13.4675 36.5555 20.64 27.8577L20.6404 27.8572C22.2112 25.9571 25.996 22.185 27.9192 20.5908L27.9197 20.5904C33.9576 15.5987 40.5667 12.0416 47.9689 9.80956C51.9565 8.59819 54.9144 8.04322 60.1874 7.50333L60.193 7.50282C60.3593 7.4877 61.0107 7.48199 61.878 7.48045C62.764 7.47889 63.9153 7.48202 65.1159 7.48827L65.1185 7.4883C68.7195 7.5258 69.8587 7.57575 71.4916 7.79262L71.4932 7.79283C82.7968 9.33022 92.3088 13.4802 100.994 20.64L100.995 20.641C102.931 22.2482 106.691 26.008 108.325 27.9957ZM108.325 27.9957C108.324 27.9955 108.324 27.9952 108.324 27.9949L107.938 28.3133L108.325 27.9958C108.325 27.9958 108.325 27.9958 108.325 27.9957ZM28.1849 15.2408L28.1847 15.2409C23.7231 18.5252 19.145 23.0289 15.799 27.4281C10.8391 33.9753 7.24373 41.4145 5.22287 49.3615L5.22277 49.3619C2.30927 60.7803 2.79287 72.9939 6.58657 84.127C9.02925 91.2688 12.5867 97.6157 17.4861 103.545C19.0561 105.436 22.6477 109.089 24.5498 110.707L24.5514 110.709C31.7934 116.922 40.1994 121.298 49.3616 123.629L49.3619 123.629C60.7802 126.542 72.9935 126.059 84.1265 122.265C91.2684 119.823 97.6153 116.265 103.544 111.366C105.435 109.796 109.089 106.204 110.707 104.302L110.709 104.3C116.922 97.0581 121.298 88.6522 123.629 79.49L123.629 79.4899C127.237 65.3187 125.612 50.1669 119.091 37.1121C116.165 31.2723 112.646 26.3651 107.957 21.6145L107.957 21.6142C102.871 16.4533 97.7538 12.7492 91.3928 9.62454L91.3927 9.62447C81.7835 4.90045 71.482 2.82985 60.7171 3.43744C49.115 4.10679 37.6578 8.2601 28.1849 15.2408Z" stroke="black"/>
<path d="M73.5455 27.7835L73.5453 27.7841C71.9039 32.298 70.4315 36.3285 70.2687 36.7511C70.268 36.7529 70.2673 36.7546 70.2667 36.7563L70.008 37.471L69.8886 37.8008H69.5379H50.7254C49.6867 37.8008 48.704 37.8007 47.7741 37.8006C39.5539 37.7998 35.461 37.7994 33.3497 37.8693C32.158 37.9087 31.6574 37.9702 31.4109 38.0436C31.2832 38.0817 31.2681 38.0967 31.1764 38.1876C31.1414 38.2223 31.0952 38.268 31.0274 38.3304C30.7587 38.5811 30.5611 38.9666 30.4814 39.4044C30.4039 39.8301 30.4451 40.2664 30.6026 40.6223C30.6125 40.6356 30.6274 40.6546 30.6481 40.6805C30.6975 40.7418 30.77 40.8282 30.8669 40.9409C31.0601 41.1656 31.3405 41.4834 31.705 41.8908C32.4336 42.7051 33.4915 43.8698 34.8442 45.3475C37.5493 48.3026 41.4297 52.5047 46.2043 57.6481L61.6541 74.2729L61.7879 74.4168V74.6133V88.0003V88.0008L61.8004 101.388L61.8008 101.842L61.3488 101.886L60.4488 101.973L60.4461 101.974C56.548 102.331 52.5479 103.417 49.5997 104.898L49.5995 104.898C45.3285 107.039 43.1563 109.709 42.734 113.076L42.734 113.076L42.7336 113.079L42.7208 113.176H64.4254H86.1286L86.1173 113.092L86.1168 113.088C85.6943 109.72 83.5086 107.027 79.2648 104.911L79.2635 104.91C76.315 103.43 72.2771 102.331 68.4168 101.974L68.4152 101.973L67.5027 101.886L67.0504 101.843V101.388V87.9383V87.9378L67.0629 74.4878L67.0631 74.2912L67.1971 74.1474L82.6346 57.5849L82.6347 57.5848C87.4531 52.4164 91.3366 48.2299 94.0339 45.2967C95.3827 43.8299 96.4339 42.6777 97.1568 41.8732C97.5185 41.4707 97.7963 41.1571 97.9875 40.9355C98.0834 40.8244 98.1551 40.7392 98.2038 40.6788C98.2153 40.6645 98.225 40.6523 98.233 40.6421C98.239 40.6344 98.2441 40.6278 98.2483 40.6222C98.4057 40.2663 98.4469 39.83 98.3694 39.4044C98.2897 38.9667 98.0922 38.5814 97.8236 38.3306C97.7963 38.3055 97.7719 38.2829 97.7498 38.2625C97.6008 38.1247 97.5567 38.0839 97.4341 38.038C97.2609 37.9732 96.9401 37.9133 96.2016 37.8735C94.8415 37.8002 92.2728 37.8004 87.1016 37.8007C86.7197 37.8008 86.3237 37.8008 85.9129 37.8008C80.6974 37.8008 77.9373 37.7977 76.4932 37.7679C75.7809 37.7532 75.3578 37.7317 75.1152 37.6949C75.0516 37.6853 74.9873 37.6727 74.9266 37.6547C74.8711 37.6382 74.7866 37.608 74.7052 37.5473C74.612 37.4778 74.5158 37.3613 74.4882 37.1952C74.4641 37.0495 74.5054 36.9342 74.5256 36.8854L74.5254 36.8853L74.531 36.8727C74.5302 36.8744 74.5319 36.8699 74.5367 36.8574C74.5445 36.8368 74.5605 36.7943 74.5871 36.7226C74.6253 36.6198 74.6788 36.4743 74.7461 36.2906C74.8807 35.9231 75.0696 35.4048 75.2993 34.7736C75.5478 34.0906 75.8438 33.2761 76.17 32.3783C76.4469 31.6166 76.7455 30.795 77.0553 29.9429C77.7241 28.0865 78.3366 26.3959 78.7819 25.1678L78.9906 24.5925C79.1192 24.2378 79.2272 23.94 79.3105 23.7098C79.3731 23.537 79.4216 23.4028 79.4545 23.3115L79.4754 23.2531V23.1312L79.6218 22.9847C79.6819 22.9335 79.7914 22.8734 79.835 22.8584C79.8626 22.8511 79.9091 22.8426 79.9279 22.8405C79.9634 22.8371 79.9914 22.8383 80.0014 22.8388C80.0102 22.8392 80.0183 22.8399 80.0253 22.8406C80.0371 22.8417 80.0458 22.8429 80.0494 22.8434C80.0645 22.8456 80.0778 22.8481 80.0842 22.8494C80.0994 22.8523 80.117 22.8562 80.1343 22.86C80.1702 22.868 80.2207 22.8798 80.2837 22.8947C80.4104 22.9248 80.5952 22.9695 80.8312 23.0272C81.3035 23.1426 81.9846 23.3107 82.8237 23.5186C83.844 23.7713 85.099 24.0829 86.4977 24.4303C87.3996 24.6543 88.3613 24.8931 89.3583 25.1405L89.3596 25.1408L89.402 25.1515C94.5194 26.4355 97.0185 27.0625 98.3532 27.2858C99.0278 27.3986 99.3341 27.3941 99.5059 27.356C99.647 27.3247 99.7177 27.2716 99.9446 27.0901C100.191 26.8797 100.471 26.6046 100.556 26.4851L100.56 26.4801C100.622 26.395 100.711 26.1591 100.762 25.8044C100.809 25.47 100.809 25.1118 100.759 24.8325C100.73 24.6943 100.614 24.4607 100.414 24.2113C100.224 23.9734 100.011 23.7857 99.842 23.6936C99.8354 23.6914 99.8252 23.688 99.8105 23.6833C99.77 23.6705 99.7118 23.653 99.6349 23.6308C99.4818 23.5865 99.2653 23.5265 98.9912 23.4521C98.4435 23.3036 97.6732 23.1002 96.7356 22.8566C94.8609 22.3696 92.3219 21.7231 89.5669 21.0359L89.5668 21.0359C85.0332 19.904 82.5114 19.2807 81.0071 18.94C79.5035 18.5995 79.0552 18.5511 78.6541 18.5508C77.9072 18.563 77.6254 18.6243 77.3831 18.7435C77.2031 18.8449 76.9282 19.0771 76.7837 19.2423C76.7817 19.2462 76.7794 19.2509 76.7766 19.2564C76.7609 19.2881 76.7395 19.3343 76.7118 19.3967C76.6568 19.5209 76.5837 19.6953 76.4936 19.9174C76.3137 20.361 76.0709 20.9827 75.7785 21.7493C75.1938 23.2819 74.4136 25.3853 73.5455 27.7835ZM30.59 40.6048C30.5899 40.6048 30.5906 40.6058 30.5922 40.6081C30.5908 40.606 30.59 40.6049 30.59 40.6048ZM75.4502 37.2662C75.4515 37.2631 75.4532 37.2589 75.4552 37.2535C75.4533 37.2582 75.4516 37.2624 75.4501 37.2661L75.4502 37.2662ZM64.6579 52.1962L64.6576 52.1972C63.6954 54.8338 62.8145 57.2734 62.1681 59.0816C61.8448 59.9858 61.5804 60.7315 61.3938 61.2647C61.3005 61.5315 61.227 61.744 61.1755 61.8962C61.1347 62.0169 61.1137 62.0826 61.1053 62.1086C61.1043 62.1118 61.1035 62.1144 61.1028 62.1164C61.0957 62.1717 61.092 62.2778 61.1009 62.4172C61.1103 62.5637 61.1315 62.7121 61.1594 62.8254C61.2905 63.3097 61.536 63.6715 61.8546 63.9137C62.1744 64.1568 62.5959 64.3008 63.1129 64.3008C63.9726 64.3008 64.5262 63.9617 64.8559 63.3218L64.8579 63.3179C64.8577 63.3183 64.8585 63.3164 64.8604 63.3119C64.8688 63.2918 64.8988 63.2195 64.9571 63.0698C65.0213 62.9048 65.1092 62.6741 65.2184 62.3842C65.4365 61.8047 65.7376 60.9939 66.1 60.0107C66.8246 58.0446 67.793 55.3923 68.8303 52.5304L68.8306 52.5297L72.6181 42.1297L72.7379 41.8008H73.0879H81.8379H81.8608C86.1404 41.8008 88.329 41.8008 89.425 41.8307C89.9497 41.845 90.2869 41.8661 90.4806 41.9181C90.5344 41.9325 90.6153 41.9586 90.6948 42.0112C90.782 42.0689 90.8937 42.1776 90.9321 42.3524C90.9675 42.513 90.9205 42.6419 90.8945 42.7002C90.8692 42.7569 90.8378 42.8028 90.8266 42.8191L90.8255 42.8206L90.8256 42.8207L90.8198 42.8289C90.7916 42.8683 90.7333 42.9334 90.6895 42.9825C90.6321 43.0467 90.5517 43.1356 90.4505 43.2469C90.2479 43.4696 89.9587 43.7853 89.5956 44.1803C88.8694 44.9703 87.8457 46.0795 86.6245 47.4002C84.1821 50.0417 80.9482 53.5307 77.72 57.0081C74.4917 60.4856 71.2688 63.9519 68.8481 66.5482C67.6379 67.8463 66.6278 68.9272 65.9178 69.6834C65.563 70.0613 65.2824 70.3589 65.0891 70.562C64.9926 70.6634 64.9166 70.7426 64.8635 70.797C64.8374 70.8237 64.8142 70.8471 64.7961 70.8647C64.7878 70.8728 64.7756 70.8845 64.7627 70.8959C64.7605 70.8978 64.7567 70.9011 64.7517 70.9053C64.7448 70.9112 64.7355 70.9187 64.7248 70.9266C64.714 70.9344 64.6848 70.9535 64.6656 70.9645C64.6339 70.98 64.528 71.008 64.4254 71.0168V71.0258C64.4108 71.0243 64.3957 71.0221 64.3803 71.0193C64.3676 71.0196 64.3552 71.0195 64.3432 71.019L64.3444 71.0119C64.2641 70.9937 64.1859 70.9645 64.1622 70.9511C64.1469 70.9413 64.1235 70.9247 64.1147 70.9179C64.0994 70.9059 64.0875 70.8951 64.0828 70.8908C64.0714 70.8805 64.0603 70.8697 64.0522 70.8617C64.0348 70.8445 64.0122 70.8215 63.9862 70.7947C63.9334 70.7403 63.8576 70.661 63.7612 70.5595C63.568 70.3559 63.2876 70.0579 62.9328 69.6796C62.2228 68.9226 61.2129 67.8412 60.0026 66.5429C57.582 63.9461 54.3591 60.4802 51.1309 57.0035C47.9026 53.5268 44.6688 50.0391 42.2263 47.3985C41.0051 46.0783 39.9815 44.9696 39.2552 44.1798C38.8922 43.785 38.6029 43.4694 38.4003 43.2468C38.2991 43.1356 38.2188 43.0468 38.1614 42.9825L38.1581 42.9788C38.1147 42.9303 38.0585 42.8674 38.031 42.8289L38.0309 42.829L38.0252 42.8206L38.0237 42.8184C38.0113 42.8005 37.9594 42.7255 37.9326 42.6253C37.8935 42.4785 37.9106 42.2876 38.0469 42.1312C38.1471 42.0164 38.271 41.9711 38.3268 41.9529C38.3954 41.9304 38.4687 41.9164 38.5379 41.9063C38.804 41.8672 39.3083 41.8452 40.2236 41.8305C42.0774 41.8008 45.7541 41.8008 52.9588 41.8008H52.9754C57.0195 41.8008 60.6953 41.807 63.3603 41.818C64.6926 41.8234 65.7731 41.8301 66.5209 41.8377C66.8945 41.8415 67.1867 41.8456 67.3863 41.8499C67.4855 41.8521 67.5651 41.8544 67.6214 41.8569C67.6483 41.8581 67.6765 41.8596 67.7009 41.8618C67.7108 41.8627 67.7336 41.8648 67.7595 41.8695C67.7686 41.8711 67.8031 41.8773 67.8444 41.8923C67.862 41.8986 67.9129 41.9177 67.9686 41.9581C68.0086 41.9871 68.1754 42.1173 68.1754 42.3633C68.1754 42.4065 68.1696 42.4402 68.1681 42.4486L68.168 42.449C68.1657 42.4625 68.1633 42.4732 68.1619 42.479C68.1591 42.491 68.1564 42.5007 68.155 42.5054C68.1521 42.5157 68.1491 42.5253 68.147 42.5318C68.1456 42.5362 68.144 42.541 68.1424 42.546C68.1388 42.5568 68.1348 42.5688 68.1305 42.5814C68.1176 42.619 68.0991 42.6722 68.0756 42.739C68.0283 42.8732 67.959 43.0678 67.8701 43.3157C67.6923 43.8119 67.4355 44.5245 67.1191 45.4004C66.4862 47.1522 65.6142 49.5587 64.6579 52.1962ZM90.2213 42.8839C90.2209 42.8838 90.2205 42.8837 90.22 42.8835L90.2213 42.8839ZM79.4992 23.1859C79.5 23.1836 79.4997 23.1846 79.4988 23.1872L79.4992 23.1859Z" stroke="black"/>
</g>
</svg>
