<svg width="64" height="64" viewBox="0 0 64 64" fill="none" xmlns="http://www.w3.org/2000/svg">
<path d="M2.32294 46.1748H1V35.981H4.40228C4.96435 35.981 5.45466 36.0628 5.87022 36.2281C6.28729 36.3934 6.6341 36.6138 6.91064 36.8907C7.18719 37.1677 7.39198 37.4923 7.52801 37.8661C7.66405 38.2398 7.73132 38.6314 7.73132 39.0379C7.73132 39.4653 7.65358 39.8658 7.49812 40.2396C7.34265 40.6133 7.11245 40.9439 6.8075 41.2298C6.50255 41.5157 6.12136 41.742 5.66543 41.9073C5.2095 42.0726 4.6863 42.1544 4.09434 42.1544C3.74604 42.1544 3.42614 42.1321 3.13465 42.0889C2.84315 42.0457 2.57258 41.9892 2.31995 41.9222V46.1748H2.32294ZM2.32294 41.3251C2.52624 41.4025 2.75495 41.4531 3.00609 41.4784C3.25872 41.5023 3.53377 41.5142 3.83424 41.5142C4.27073 41.5142 4.64295 41.4412 4.95388 41.2953C5.26331 41.1494 5.52043 40.9602 5.72522 40.728C5.92852 40.4942 6.07651 40.2351 6.16919 39.9492C6.26038 39.6633 6.30672 39.3789 6.30672 39.0975C6.30672 38.8056 6.2559 38.5123 6.15425 38.216C6.0526 37.9197 5.90012 37.6531 5.69682 37.4149C5.49352 37.1766 5.23641 36.986 4.92548 36.8401C4.61455 36.6942 4.25728 36.6212 3.84919 36.6212H2.32294V41.3251Z" fill="#262626"/>
<path d="M9.91309 46.1748V35.981H11.236V45.3737H16.4859V46.1748H9.91309Z" fill="#262626"/>
<path d="M19.3077 43.1744L18.0281 46.1748H17.3584L21.6621 35.981H22.3886L27.1287 46.1748H25.7176L24.3214 43.1744H19.3077ZM21.7353 37.6114H21.677L19.5827 42.5193H24.018L21.7353 37.6114Z" fill="#262626"/>
<path d="M36.5669 35.981L30.1107 45.3737H36.8151V46.1748H28.0029L34.5175 36.782H28.3662V35.981H36.5669Z" fill="#262626"/>
<path d="M44.6531 44.7325H44.7114L49.4232 35.9815H50.4262V46.1753H49.1033V37.9187H49.045L44.4498 46.3495H44.1882L39.6932 37.8591H39.6349V46.1738H38.9951V35.98H39.9832L44.6531 44.7325Z" fill="#262626"/>
<path d="M54.5548 43.1744L53.2752 46.1748H52.6055L56.9091 35.981H57.6356L62.3758 46.1748H60.9647L59.5685 43.1744H54.5548ZM56.9824 37.6114H56.9241L54.8298 42.5193H59.265L56.9824 37.6114Z" fill="#262626"/>
<path d="M18.5649 53.8188H18.1344V50.7752H16.1493V53.8188H15.7188V50.5161H18.5649V53.8188Z" fill="#262626"/>
<path d="M19.9097 52.8464L19.4927 53.8188H19.2744L20.6766 50.5161H20.9128L22.457 53.8188H21.998L21.5436 52.8464H19.9097ZM20.702 51.0432H20.6826L20.0009 52.6335H21.4464L20.702 51.0432Z" fill="#262626"/>
<path d="M23.5995 53.8188H23.1689V50.5161H24.2781C24.4605 50.5161 24.6204 50.5429 24.7565 50.5965C24.8925 50.6501 25.0046 50.7216 25.0958 50.8109C25.1855 50.9003 25.2528 51.006 25.2976 51.1266C25.3425 51.2472 25.3634 51.3738 25.3634 51.5063C25.3634 51.6448 25.338 51.7743 25.2872 51.895C25.2363 52.0156 25.1616 52.1228 25.0614 52.2151C24.9613 52.3074 24.8387 52.3804 24.6892 52.4355C24.5412 52.4891 24.3708 52.5159 24.178 52.5159C24.0644 52.5159 23.9597 52.5084 23.8655 52.495C23.7714 52.4801 23.6817 52.4623 23.601 52.4414V53.8188H23.5995ZM23.5995 52.2464C23.6652 52.2717 23.74 52.2881 23.8222 52.2955C23.9044 52.3029 23.9941 52.3074 24.0928 52.3074C24.2348 52.3074 24.3559 52.2836 24.4575 52.2374C24.5592 52.1898 24.6429 52.1287 24.7086 52.0528C24.7744 51.9768 24.8237 51.8935 24.8536 51.8011C24.8835 51.7088 24.8985 51.6165 24.8985 51.5257C24.8985 51.4319 24.882 51.3366 24.8492 51.2398C24.8163 51.1445 24.7669 51.0581 24.6997 50.9807C24.6339 50.9033 24.5502 50.8407 24.4485 50.7946C24.3469 50.7484 24.2303 50.7246 24.0973 50.7246H23.5995V52.2464Z" fill="#262626"/>
<path d="M26.2134 50.5142H26.6439V52.3739L28.4198 50.5142H28.656L27.4526 51.7932L28.931 53.8183H28.4377L27.1776 52.0866L26.6424 52.6569V53.8183H26.2119V50.5142H26.2134Z" fill="#262626"/>
<path d="M30.5303 52.3784V52.7328H29.3613V52.3784H30.5303Z" fill="#262626"/>
<path d="M31.1537 51.5951C31.221 51.3941 31.3286 51.2095 31.4736 51.0412C31.6186 50.873 31.804 50.733 32.0282 50.6228C32.2525 50.5126 32.5215 50.4575 32.8339 50.4575C33.1494 50.4575 33.4244 50.5126 33.6561 50.6243C33.8878 50.736 34.0792 50.8774 34.2316 51.0472C34.3826 51.2169 34.4947 51.4016 34.568 51.6011C34.6397 51.8006 34.6771 51.9882 34.6771 52.1654C34.6771 52.2816 34.6607 52.4052 34.6278 52.5332C34.5949 52.6613 34.5456 52.7908 34.4813 52.9174C34.417 53.044 34.3333 53.1661 34.2331 53.2807C34.1315 53.3954 34.0119 53.4966 33.8759 53.586C33.7398 53.6753 33.5844 53.7438 33.4125 53.7959C33.2406 53.848 33.0477 53.8733 32.8369 53.8733C32.5245 53.8733 32.2554 53.8182 32.0312 53.7066C31.807 53.5949 31.6216 53.4549 31.4766 53.2837C31.3316 53.1139 31.224 52.9293 31.1567 52.7298C31.088 52.5302 31.0551 52.3426 31.0551 52.1654C31.0506 51.9868 31.085 51.7962 31.1537 51.5951ZM31.6171 52.7729C31.6844 52.9576 31.7786 53.1154 31.8967 53.2465C32.0148 53.379 32.1553 53.4817 32.3152 53.5562C32.4767 53.6306 32.6516 53.6679 32.8414 53.6679C33.0283 53.6679 33.2032 53.6306 33.3691 53.5562C33.535 53.4817 33.68 53.379 33.8056 53.2465C33.9297 53.1139 34.0283 52.9561 34.1016 52.7729C34.1733 52.5883 34.2107 52.3873 34.2107 52.1669C34.2107 51.9465 34.1748 51.744 34.1016 51.5609C34.0283 51.3762 33.9297 51.2184 33.8056 51.0874C33.68 50.9549 33.535 50.8521 33.3691 50.7777C33.2032 50.7032 33.0283 50.6675 32.8414 50.6675C32.6516 50.6675 32.4767 50.7047 32.3152 50.7777C32.1538 50.8521 32.0148 50.9549 31.8967 51.0874C31.7786 51.2199 31.6844 51.3777 31.6171 51.5609C31.5499 51.7455 31.5155 51.9465 31.5155 52.1669C31.5155 52.3873 31.5499 52.5883 31.6171 52.7729Z" fill="#262626"/>
<path d="M36.276 53.8188V50.7752H35.0068V50.5161H37.9771V50.7752H36.708V53.8188H36.276Z" fill="#262626"/>
<path d="M40.7822 50.5142V50.7732H39.0721V51.9585H40.5401V52.1848H39.0721V53.5577H40.7822V53.8168H38.6416V50.5142H40.7822Z" fill="#262626"/>
<path d="M44.5226 53.8183H44.0532L42.8543 51.0443H42.8349L41.9111 53.3791C41.8483 53.5399 41.7765 53.662 41.6958 53.7469C41.6151 53.8317 41.5239 53.8734 41.4237 53.8734C41.361 53.8734 41.2982 53.869 41.2369 53.86C41.1756 53.8511 41.1173 53.8362 41.0635 53.8168L41.1905 53.4952C41.2219 53.5116 41.2563 53.5295 41.2952 53.5518C41.3325 53.5741 41.3729 53.5846 41.4133 53.5846C41.5179 53.5846 41.5941 53.5414 41.6435 53.4565C41.6928 53.3716 41.7436 53.2585 41.7975 53.117L42.8199 50.5127H43.08L44.5226 53.8183Z" fill="#262626"/>
<path d="M45.2334 50.5142H45.6639V51.9585H46.3889C46.5982 51.9585 46.7746 51.9838 46.9211 52.0359C47.0676 52.0881 47.1872 52.1551 47.2813 52.237C47.3755 52.3189 47.4428 52.4127 47.4846 52.5199C47.5265 52.6271 47.5489 52.7343 47.5489 52.84C47.5489 52.9532 47.5295 53.0678 47.4906 53.1825C47.4503 53.2971 47.386 53.4029 47.2933 53.4967C47.2021 53.5905 47.0795 53.6679 46.9286 53.729C46.7761 53.7885 46.5877 53.8183 46.3605 53.8183H45.2334V50.5142ZM46.3366 53.6098C46.4472 53.6098 46.5474 53.5905 46.6371 53.5533C46.7268 53.516 46.8045 53.4639 46.8688 53.3969C46.933 53.3314 46.9839 53.2555 47.0197 53.1676C47.0556 53.0812 47.0751 52.9889 47.0751 52.8921C47.0751 52.7879 47.0556 52.6911 47.0153 52.6018C46.9749 52.5124 46.9211 52.435 46.8493 52.371C46.7776 52.3069 46.6924 52.2563 46.5937 52.2206C46.4936 52.1848 46.3859 52.1655 46.2693 52.1655H45.6624V53.6098H46.3366Z" fill="#262626"/>
<path d="M24.8992 56.6997L25.6257 59.106H27.9771L26.0741 60.592L26.8021 62.9998L24.8992 61.5122L22.9962 62.9998L23.7242 60.592L21.8213 59.106H24.1727L24.8992 56.6997Z" fill="#262626"/>
<path d="M31.0545 56.6997L31.781 59.106H34.1324L32.2294 60.592L32.9574 62.9998L31.0545 61.5122L29.1515 62.9998L29.8795 60.592L27.9766 59.106H30.328L31.0545 56.6997Z" fill="#262626"/>
<path d="M37.2117 56.6997L37.9382 59.106H40.2896L38.3866 60.592L39.1146 62.9998L37.2117 61.5122L35.3087 62.9998L36.0367 60.592L34.1338 59.106H36.4852L37.2117 56.6997Z" fill="#262626"/>
<path fill-rule="evenodd" clip-rule="evenodd" d="M11.5663 10.9869L16.8058 5.89746L17.1301 5.58179L17.456 5.26611L17.7804 5.58179L18.1048 5.89746L21.4727 9.17033C21.4488 9.27605 21.4248 9.38029 21.4024 9.4875C21.2724 10.1084 21.1737 10.7427 21.1079 11.389L17.453 7.83915L12.1598 12.9822L11.3241 13.7937L11.372 12.6368L11.4258 11.2981L11.4333 11.115L11.5663 10.9869ZM11.3107 17.1768L16.8043 11.8416L17.1286 11.526L17.453 11.2103L17.7774 11.526L18.1033 11.8416L21.0063 14.6619V17.2334L17.453 13.7818L11.9041 19.1721L11.0685 19.9836L11.1164 18.8267L11.1717 17.488L11.1791 17.3049L11.3107 17.1768ZM18.2782 20.5256V26.175H16.6339V20.5256L11.653 25.365L10.8174 26.1765L10.8652 25.0195L10.9205 23.6809L10.928 23.4977L11.0581 23.3711L16.8058 17.7873L17.1301 17.4716L17.4545 17.156L17.7789 17.4716L18.1048 17.7873L21.0078 20.6075V23.1791L18.2782 20.5256Z" fill="#262626"/>
<path fill-rule="evenodd" clip-rule="evenodd" d="M24.6077 26.1749H23.3311V13.411C23.3311 10.966 23.7855 8.7995 24.6929 6.91738C25.6017 5.03525 26.8888 3.58048 28.569 2.54412C30.2418 1.51669 32.1417 1 34.2689 1C37.3438 1 39.8178 2.07061 41.6893 4.21331C39.015 5.86464 36.3123 7.97905 33.8668 10.4345C29.6558 14.6603 26.1399 19.9344 24.7407 25.6344L24.6077 26.1749ZM44.6312 26.1749H35.8968C37.2302 25.1549 39.0614 24.2109 41.1078 23.5021C42.2454 23.1075 43.4368 22.7933 44.6312 22.5849V26.1749Z" fill="#262626"/>
<path fill-rule="evenodd" clip-rule="evenodd" d="M49.1942 15.4425C49.3781 17.8979 49.6995 19.7726 49.9686 20.1568C43.5557 19.2648 35.4147 22.5794 32.6014 26.1769H31.4907C33.3443 23.5651 36.1277 21.0576 39.4882 19.0817C42.3762 17.3812 45.6858 16.0783 49.1942 15.4425ZM49.0926 9.29136C49.0104 11.0678 49.0388 12.8874 49.1329 14.5193C45.4721 15.1685 42.0204 16.5191 39.0143 18.288C35.319 20.4605 32.2905 23.2673 30.3681 26.1754H29.2918C30.7328 23.1586 33.7195 19.5284 37.4656 16.3062C40.9128 13.3415 44.9907 10.7387 49.0926 9.29136ZM26.9912 26.1754C29.812 14.6786 42.1909 4.83769 50.133 2.95557C49.5978 4.39099 49.2944 6.288 49.1509 8.29967C44.8054 9.76189 40.4852 12.4928 36.8602 15.6108C32.8809 19.034 29.7268 22.9442 28.2828 26.1754H26.9912Z" fill="#262626"/>
<path d="M49.9666 27.6846H10.8164V29.6456H49.9666V27.6846Z" fill="#262626"/>
</svg>
