<svg width="25" height="24" viewBox="0 0 25 24" fill="none" xmlns="http://www.w3.org/2000/svg">
<mask id="path-1-inside-1_5510_4239" fill="white">
<path d="M0.5 0H24.5V24H0.5V0Z"/>
</mask>
<path d="M23.5 0V24H25.5V0H23.5ZM1.5 24V0H-0.5V24H1.5Z" fill="#262626" mask="url(#path-1-inside-1_5510_4239)"/>
<path d="M7.56538 14.4531C7.43777 14.749 7.50288 15.0469 7.70913 15.2656C8.6505 16.2624 12.5029 20 12.5029 20C12.5029 20 16.3553 16.2624 17.2966 15.2656C17.5029 15.0469 17.5591 14.7281 17.4404 14.4531C17.3216 14.1781 17.0498 14 16.7529 14H14.5029V5C14.5029 4.44687 14.056 4 13.5029 4H11.5029C10.9498 4 10.5029 4.44687 10.5029 5V14H8.25288C7.95288 14 7.69272 14.1579 7.56538 14.4531Z" fill="#262626"/>
</svg>
