<svg width="24" height="24" viewBox="0 0 24 24" fill="none" xmlns="http://www.w3.org/2000/svg">
<mask id="path-1-inside-1_5364_10099" fill="white">
<path d="M0 0H24V24H0V0Z"/>
</mask>
<path d="M23 0V24H25V0H23ZM1 24V0H-1V24H1Z" fill="#F1F1F1" mask="url(#path-1-inside-1_5364_10099)"/>
<path d="M7.06538 14.4531C6.93777 14.749 7.00288 15.0469 7.20913 15.2656C8.1505 16.2624 12.0029 20 12.0029 20C12.0029 20 15.8553 16.2624 16.7966 15.2656C17.0029 15.0469 17.0591 14.7281 16.9404 14.4531C16.8216 14.1781 16.5498 14 16.2529 14H14.0029V5C14.0029 4.44687 13.556 4 13.0029 4H11.0029C10.4498 4 10.0029 4.44687 10.0029 5V14H7.75288C7.45288 14 7.19272 14.1579 7.06538 14.4531Z" fill="#F1F1F1"/>
</svg>
