<svg width="128" height="64" viewBox="0 0 128 64" fill="none" xmlns="http://www.w3.org/2000/svg">
<path d="M5.64589 25.3901H3V5.00244H9.80457C10.9287 5.00244 11.9093 5.16623 12.7404 5.49679C13.5746 5.82735 14.2682 6.26811 14.8213 6.82202C15.3744 7.37594 15.784 8.02515 16.056 8.77264C16.3281 9.52013 16.4626 10.3034 16.4626 11.1164C16.4626 11.9711 16.3072 12.7722 15.9962 13.5196C15.6853 14.2671 15.2249 14.9283 14.615 15.5001C14.0051 16.0718 13.2427 16.5245 12.3309 16.8551C11.419 17.1856 10.3726 17.3494 9.18868 17.3494C8.49208 17.3494 7.85229 17.3047 7.2693 17.2184C6.6863 17.132 6.14516 17.0189 5.6399 16.8848V25.3901H5.64589ZM5.64589 15.6906C6.05249 15.8455 6.50991 15.9468 7.01218 15.9974C7.51744 16.045 8.06754 16.0689 8.66847 16.0689C9.54147 16.0689 10.2859 15.9229 10.9078 15.6311C11.5266 15.3392 12.0409 14.961 12.4504 14.4964C12.857 14.0289 13.153 13.5107 13.3384 12.9389C13.5208 12.3671 13.6134 11.7983 13.6134 11.2355C13.6134 10.6518 13.5118 10.0651 13.3085 9.47247C13.1052 8.87984 12.8002 8.34677 12.3936 7.87028C11.987 7.3938 11.4728 7.01261 10.851 6.72076C10.2291 6.42891 9.51456 6.283 8.69837 6.283H5.64589V15.6906Z" fill="#262626"/>
<path d="M20.8262 25.3897V5.00195H23.4721V23.7875H33.9719V25.3897H20.8262Z" fill="#262626"/>
<path d="M39.6154 19.3894L37.0562 25.3901H35.7168L44.3242 5.00244H45.7771L55.2575 25.3901H52.4352L49.6428 19.3894H39.6154ZM44.4706 8.26339H44.3541L40.1655 18.079H49.0359L44.4706 8.26339Z" fill="#262626"/>
<path d="M74.1339 5.00195L61.2213 23.7875H74.6302V25.3897H57.0059L70.035 6.60413H57.7324V5.00195H74.1339Z" fill="#262626"/>
<path d="M90.3063 22.505H90.4229L99.8464 5.00298H101.852V25.3907H99.2066V8.87741H99.09L89.8997 25.7391H89.3765L80.3864 8.75829H80.2698V25.3877H78.9902V5H80.9664L90.3063 22.505Z" fill="#262626"/>
<path d="M110.11 19.3894L107.55 25.3901H106.211L114.818 5.00244H116.271L125.752 25.3901H122.929L120.137 19.3894H110.11ZM114.965 8.26339H114.848L110.66 18.079H119.53L114.965 8.26339Z" fill="#262626"/>
<path d="M38.1309 40.6776H37.2698V34.5904H33.2995V40.6776H32.4385V34.0723H38.1309V40.6776Z" fill="#262626"/>
<path d="M40.8195 38.7329L39.9853 40.6776H39.5488L42.3532 34.0723H42.8255L45.9139 40.6776H44.9961L44.0872 38.7329H40.8195ZM42.404 35.1265H42.3651L41.0018 38.307H43.8929L42.404 35.1265Z" fill="#262626"/>
<path d="M48.1999 40.6776H47.3389V34.0723H49.5572C49.922 34.0723 50.2419 34.1259 50.5139 34.2331C50.786 34.3403 51.0102 34.4832 51.1926 34.6619C51.372 34.8406 51.5065 35.052 51.5962 35.2933C51.6859 35.5345 51.7278 35.7876 51.7278 36.0527C51.7278 36.3296 51.6769 36.5887 51.5753 36.8299C51.4736 37.0712 51.3241 37.2856 51.1238 37.4702C50.9235 37.6548 50.6784 37.8008 50.3794 37.911C50.0834 38.0182 49.7426 38.0718 49.3569 38.0718C49.1297 38.0718 48.9204 38.0569 48.7321 38.0301C48.5437 38.0003 48.3643 37.9646 48.2029 37.9229V40.6776H48.1999ZM48.1999 37.5328C48.3314 37.5834 48.4809 37.6161 48.6454 37.631C48.8098 37.6459 48.9892 37.6548 49.1865 37.6548C49.4705 37.6548 49.7127 37.6072 49.916 37.5149C50.1193 37.4196 50.2867 37.2975 50.4183 37.1456C50.5498 36.9937 50.6485 36.827 50.7083 36.6423C50.7681 36.4577 50.798 36.273 50.798 36.0914C50.798 35.9038 50.7651 35.7132 50.6993 35.5196C50.6335 35.329 50.5349 35.1563 50.4003 35.0014C50.2688 34.8466 50.1014 34.7215 49.8981 34.6292C49.6948 34.5368 49.4616 34.4892 49.1955 34.4892H48.1999V37.5328Z" fill="#262626"/>
<path d="M53.4268 34.0684H54.2878V37.7879L57.8396 34.0684H58.312L55.9053 36.6265L58.8621 40.6766H57.8755L55.3552 37.2132L54.2849 38.3538V40.6766H53.4238V34.0684H53.4268Z" fill="#262626"/>
<path d="M62.0616 37.7969V38.5057H59.7236V37.7969H62.0616Z" fill="#262626"/>
<path d="M63.3085 36.2303C63.443 35.8283 63.6583 35.459 63.9483 35.1225C64.2383 34.7859 64.609 34.506 65.0574 34.2856C65.5059 34.0653 66.044 33.9551 66.6689 33.9551C67.2997 33.9551 67.8498 34.0653 68.3132 34.2886C68.7766 34.512 69.1593 34.7949 69.4643 35.1344C69.7662 35.4739 69.9904 35.8432 70.1369 36.2422C70.2804 36.6413 70.3552 37.0165 70.3552 37.3709C70.3552 37.6032 70.3223 37.8504 70.2565 38.1065C70.1907 38.3626 70.0921 38.6217 69.9635 38.8748C69.835 39.128 69.6675 39.3722 69.4672 39.6015C69.2639 39.8308 69.0248 40.0333 68.7527 40.212C68.4806 40.3906 68.1697 40.5276 67.8259 40.6319C67.4821 40.7361 67.0964 40.7867 66.6749 40.7867C66.05 40.7867 65.5119 40.6765 65.0634 40.4532C64.6149 40.2298 64.2442 39.9499 63.9542 39.6074C63.6642 39.2679 63.449 38.8986 63.3144 38.4996C63.1769 38.1005 63.1111 37.7253 63.1111 37.3709C63.1022 37.0135 63.1709 36.6323 63.3085 36.2303ZM64.2353 38.5859C64.3698 38.9552 64.5581 39.2709 64.7943 39.533C65.0305 39.798 65.3116 40.0035 65.6315 40.1524C65.9543 40.3013 66.3041 40.3757 66.6838 40.3757C67.0575 40.3757 67.4073 40.3013 67.7392 40.1524C68.0711 40.0035 68.361 39.798 68.6122 39.533C68.8603 39.2679 69.0577 38.9522 69.2042 38.5859C69.3477 38.2167 69.4224 37.8146 69.4224 37.3739C69.4224 36.9331 69.3507 36.5281 69.2042 36.1618C69.0577 35.7925 68.8603 35.4769 68.6122 35.2148C68.361 34.9497 68.0711 34.7443 67.7392 34.5954C67.4073 34.4465 67.0575 34.375 66.6838 34.375C66.3041 34.375 65.9543 34.4494 65.6315 34.5954C65.3086 34.7443 65.0305 34.9497 64.7943 35.2148C64.5581 35.4798 64.3698 35.7955 64.2353 36.1618C64.1007 36.5311 64.032 36.9331 64.032 37.3739C64.032 37.8146 64.1007 38.2167 64.2353 38.5859Z" fill="#262626"/>
<path d="M73.5529 40.6776V34.5904H71.0146V34.0723H76.9552V34.5904H74.4169V40.6776H73.5529Z" fill="#262626"/>
<path d="M82.5654 34.0684V34.5865H79.1452V36.9571H82.0811V37.4097H79.1452V40.1555H82.5654V40.6737H78.2842V34.0684H82.5654Z" fill="#262626"/>
<path d="M90.0461 40.6767H89.1073L86.7096 35.1286H86.6707L84.8231 39.7982C84.6975 40.1198 84.554 40.364 84.3926 40.5338C84.2311 40.7035 84.0488 40.7869 83.8485 40.7869C83.7229 40.7869 83.5973 40.7779 83.4747 40.7601C83.3522 40.7422 83.2356 40.7124 83.1279 40.6737L83.3821 40.0305C83.4448 40.0632 83.5136 40.099 83.5913 40.1436C83.6661 40.1883 83.7468 40.2091 83.8275 40.2091C84.0368 40.2091 84.1893 40.1228 84.2879 39.953C84.3866 39.7833 84.4883 39.5569 84.5959 39.274L86.6408 34.0654H87.161L90.0461 40.6767Z" fill="#262626"/>
<path d="M91.4678 34.0684H92.3288V36.9571H93.7788C94.1974 36.9571 94.5502 37.0077 94.8431 37.1119C95.1361 37.2161 95.3753 37.3502 95.5637 37.514C95.752 37.6778 95.8866 37.8654 95.9703 38.0798C96.054 38.2942 96.0988 38.5086 96.0988 38.7201C96.0988 38.9464 96.0599 39.1757 95.9822 39.405C95.9015 39.6343 95.773 39.8458 95.5876 40.0334C95.4052 40.221 95.1601 40.3759 94.8581 40.498C94.5532 40.6171 94.1764 40.6766 93.722 40.6766H91.4678V34.0684ZM93.6742 40.2597C93.8954 40.2597 94.0957 40.221 94.2751 40.1465C94.4545 40.0721 94.61 39.9679 94.7385 39.8339C94.8671 39.7028 94.9687 39.5509 95.0405 39.3752C95.1122 39.2025 95.1511 39.0179 95.1511 38.8243C95.1511 38.6158 95.1122 38.4223 95.0315 38.2436C94.9508 38.0649 94.8431 37.91 94.6996 37.782C94.5561 37.6539 94.3857 37.5527 94.1884 37.4812C93.9881 37.4097 93.7728 37.371 93.5396 37.371H92.3258V40.2597H93.6742Z" fill="#262626"/>
<path d="M50.7984 46.4399L52.2514 51.2525H56.9542L53.1483 54.2246L54.6043 59.0401L50.7984 56.065L46.9925 59.0401L48.4485 54.2246L44.6426 51.2525H49.3454L50.7984 46.4399Z" fill="#262626"/>
<path d="M63.1089 46.4395L64.5619 51.252H69.2647L65.4588 54.2241L66.9148 59.0396L63.1089 56.0645L59.303 59.0396L60.759 54.2241L56.9531 51.252H61.6559L63.1089 46.4395Z" fill="#262626"/>
<path d="M75.4234 46.4399L76.8764 51.2525H81.5792L77.7733 54.2246L79.2293 59.0401L75.4234 56.065L71.6175 59.0401L73.0735 54.2246L69.2676 51.2525H73.9704L75.4234 46.4399Z" fill="#262626"/>
</svg>
