<svg width="32" height="32" viewBox="0 0 32 32" fill="none" xmlns="http://www.w3.org/2000/svg">
<path d="M25.8727 21.178C25.048 16.244 20.3097 12.2324 15.3057 12.2324C9.86844 12.2324 5.08813 16.6353 4.62687 22.0586C4.44516 24.1552 5.11608 26.14 6.49986 27.6356C7.86965 29.1312 9.79855 29.9559 11.8952 29.9559H18.4367C20.7989 29.9559 22.8675 29.0334 24.2793 27.3701C25.691 25.7067 26.2501 23.4983 25.8727 21.178Z" fill="#262626"/>
<path d="M13.572 10.1908C15.8338 10.1908 17.6674 8.35724 17.6674 6.09541C17.6674 3.83358 15.8338 2 13.572 2C11.3101 2 9.47656 3.83358 9.47656 6.09541C9.47656 8.35724 11.3101 10.1908 13.572 10.1908Z" fill="#262626"/>
<path d="M22.8812 11.824C24.7648 11.824 26.2917 10.297 26.2917 8.41344C26.2917 6.52986 24.7648 5.00293 22.8812 5.00293C20.9976 5.00293 19.4707 6.52986 19.4707 8.41344C19.4707 10.297 20.9976 11.824 22.8812 11.824Z" fill="#262626"/>
<path d="M27.9268 17.2794C29.4322 17.2794 30.6524 16.059 30.6524 14.5537C30.6524 13.0484 29.4322 11.8281 27.9268 11.8281C26.4215 11.8281 25.2012 13.0484 25.2012 14.5537C25.2012 16.059 26.4215 17.2794 27.9268 17.2794Z" fill="#262626"/>
<path d="M4.71129 14.5545C6.59486 14.5545 8.12181 13.0275 8.12181 11.1439C8.12181 9.26034 6.59486 7.7334 4.71129 7.7334C2.82773 7.7334 1.30078 9.26034 1.30078 11.1439C1.30078 13.0275 2.82773 14.5545 4.71129 14.5545Z" fill="#262626"/>
</svg>
