<svg width="127" height="128" viewBox="0 0 127 128" fill="none" xmlns="http://www.w3.org/2000/svg">
<g clip-path="url(#clip0_442_185)">
<path d="M16.6236 74.0635V93.2223H14.1364V75.5688H2.68445V93.2223H0.197266V74.0635H16.6236Z" fill="white"/>
<path d="M32.3621 74.0635L40.6709 93.2223H37.9651L31.0501 77.1289H30.9408L25.6111 90.6769C25.2468 91.6075 24.8275 92.3191 24.3539 92.8118C23.8983 93.3044 23.379 93.5508 22.796 93.5508C22.4316 93.5508 22.067 93.5234 21.7027 93.4686C21.3564 93.4139 21.0284 93.3318 20.7188 93.2223L21.4567 91.3612C21.639 91.4523 21.8394 91.5618 22.058 91.6896C22.2767 91.8172 22.5043 91.8812 22.7413 91.8812C23.3426 91.8812 23.7799 91.6349 24.0532 91.1422C24.3448 90.6496 24.6455 89.9927 24.9552 89.1716L30.8588 74.0635H32.3621Z" fill="white"/>
<path d="M55.4044 87.5842H45.975L43.5698 93.2223H42.3125L50.4027 74.0635H51.7693L60.6794 93.2223H58.0282L55.4044 87.5842ZM54.8304 86.3525L50.5394 77.1289H50.43L46.4943 86.3525H54.8304Z" fill="white"/>
<path d="M70.1473 74.9386C69.3274 74.9386 68.6533 75.0572 68.1248 75.2945C67.5964 75.5315 67.1682 75.8235 66.8402 76.1703C66.5305 76.4987 66.3028 76.8636 66.1569 77.2651C66.0295 77.6664 65.9565 78.0314 65.9382 78.3599H63.861C63.8793 77.5752 64.0523 76.891 64.3803 76.3071C64.7083 75.7231 65.1456 75.2397 65.6922 74.8565C66.2572 74.4734 66.9222 74.1904 67.6875 74.0081C68.4527 73.8255 69.3 73.7344 70.2293 73.7344C71.4319 73.7344 72.4524 73.8803 73.2905 74.1723C74.1287 74.446 74.812 74.8109 75.3403 75.2671C75.887 75.705 76.2789 76.2158 76.5156 76.7998C76.7525 77.3653 76.8709 77.9401 76.8709 78.5241C76.8709 79.0715 76.7708 79.6096 76.5703 80.1389C76.3882 80.668 76.1239 81.1423 75.7776 81.5621C75.4316 81.9634 75.0124 82.2919 74.5204 82.5474C74.0467 82.7845 73.5274 82.9032 72.9625 82.9032V83.0127H73.1538C73.7551 83.0127 74.3474 83.1313 74.9304 83.3685C75.5136 83.5875 76.0329 83.9159 76.4883 84.3538C76.9439 84.7734 77.3082 85.2844 77.5815 85.8866C77.8731 86.4704 78.0188 87.1272 78.0188 87.8572C78.0188 88.5141 77.8822 89.18 77.6089 89.8552C77.3538 90.5302 76.9165 91.1415 76.297 91.6889C75.6776 92.2363 74.8484 92.6833 73.8098 93.0301C72.7894 93.3766 71.5231 93.5501 70.0107 93.5501C67.6967 93.5501 65.9839 93.1212 64.8723 92.2637C63.779 91.3879 63.2051 90.0922 63.1504 88.3772H65.7196C65.7379 88.6873 65.7925 89.0705 65.8836 89.5267C65.9929 89.9647 66.2025 90.3933 66.5122 90.8131C66.8221 91.2327 67.2684 91.5976 67.8514 91.9079C68.4347 92.1997 69.218 92.3458 70.202 92.3458C71.2042 92.3458 72.0332 92.1907 72.6892 91.8805C73.3451 91.5702 73.8644 91.187 74.2471 90.731C74.6297 90.2565 74.894 89.7548 75.0397 89.2257C75.2037 88.6783 75.2857 88.1856 75.2857 87.7477C75.2857 87.1089 75.149 86.5342 74.8757 86.0234C74.6207 85.5124 74.2471 85.0836 73.7551 84.737C73.2814 84.372 72.7074 84.0983 72.0332 83.9159C71.3591 83.7334 70.612 83.6422 69.792 83.6422H67.8788V82.438H69.792C70.8489 82.438 71.6779 82.2919 72.2792 82.0001C72.8988 81.6897 73.3634 81.3249 73.6731 80.9053C73.983 80.4855 74.1743 80.0568 74.2471 79.6189C74.3383 79.181 74.3837 78.8252 74.3837 78.5515C74.3837 77.5114 74.0194 76.6537 73.2905 75.9787C72.5798 75.2852 71.5322 74.9386 70.1473 74.9386Z" fill="white"/>
<path d="M84.798 74.0635L93.5715 90.5127H93.6808L102.536 74.0635H104.422V93.2223H101.935V77.7037H101.826L93.1888 93.5508H92.6969L84.2514 77.5942H84.142V93.2223H82.9395V74.0635H84.798Z" fill="white"/>
<path d="M121.625 87.5842H112.195L109.79 93.2223H108.533L116.623 74.0635H117.99L126.9 93.2223H124.249L121.625 87.5842ZM121.051 86.3525L116.76 77.1289H116.651L112.715 86.3525H121.051Z" fill="white"/>
<path d="M36.2043 109.021H35.317V102.739H31.2252V109.021H30.3379V102.204H36.2043V109.021Z" fill="white"/>
<path d="M38.9755 107.014L38.1159 109.021H37.666L40.5562 102.204H41.043L44.2258 109.021H43.2799L42.3432 107.014H38.9755ZM40.6086 103.292H40.5685L39.1635 106.575H42.1429L40.6086 103.292Z" fill="white"/>
<path d="M46.5827 109.021H45.6953V102.204H47.9815C48.3576 102.204 48.6872 102.259 48.9675 102.37C49.248 102.481 49.479 102.628 49.667 102.813C49.8518 102.997 49.9905 103.215 50.083 103.464C50.1755 103.713 50.2186 103.974 50.2186 104.248C50.2186 104.534 50.1662 104.801 50.0614 105.05C49.9566 105.299 49.8027 105.52 49.5961 105.711C49.3896 105.901 49.1371 106.052 48.829 106.166C48.5238 106.276 48.1726 106.332 47.7752 106.332C47.5409 106.332 47.3254 106.316 47.1312 106.289C46.9372 106.258 46.7522 106.221 46.5858 106.178V109.021H46.5827ZM46.5827 105.776C46.7183 105.828 46.8724 105.862 47.0418 105.877C47.2113 105.892 47.3963 105.901 47.5995 105.901C47.8923 105.901 48.1418 105.852 48.3514 105.757C48.5608 105.659 48.7334 105.533 48.8691 105.376C49.0045 105.219 49.1062 105.047 49.1679 104.856C49.2295 104.666 49.2604 104.475 49.2604 104.288C49.2604 104.094 49.2264 103.898 49.1586 103.698C49.0908 103.501 48.9891 103.323 48.8506 103.163C48.715 103.003 48.5423 102.874 48.3329 102.779C48.1233 102.684 47.8831 102.634 47.6087 102.634H46.5827V105.776Z" fill="white"/>
<path d="M51.9699 102.2H52.8572V106.039L56.5176 102.2H57.0045L54.5241 104.84L57.5714 109.02H56.5546L53.9573 105.446L52.8542 106.623V109.02H51.9668V102.2H51.9699Z" fill="white"/>
<path d="M60.8665 106.048V106.779H58.457V106.048H60.8665Z" fill="white"/>
<path d="M62.1535 104.432C62.292 104.017 62.5139 103.636 62.8127 103.289C63.1117 102.941 63.4937 102.652 63.9559 102.425C64.4181 102.198 64.9727 102.084 65.6166 102.084C66.2668 102.084 66.8338 102.198 67.3114 102.428C67.7889 102.659 68.1833 102.951 68.4975 103.301C68.8088 103.651 69.0398 104.032 69.1909 104.444C69.3386 104.856 69.4157 105.243 69.4157 105.609C69.4157 105.849 69.3818 106.104 69.314 106.368C69.2464 106.633 69.1446 106.9 69.0121 107.161C68.8795 107.423 68.7071 107.674 68.5006 107.911C68.2912 108.148 68.0446 108.357 67.7643 108.541C67.4838 108.726 67.1634 108.867 66.8091 108.975C66.4548 109.082 66.0572 109.134 65.6227 109.134C64.9789 109.134 64.4243 109.021 63.9621 108.79C63.4999 108.56 63.1179 108.271 62.8189 107.917C62.5201 107.567 62.2981 107.186 62.1596 106.774C62.0178 106.362 61.95 105.975 61.95 105.609C61.9408 105.24 62.0117 104.847 62.1535 104.432ZM63.1086 106.863C63.2471 107.244 63.4413 107.57 63.6847 107.84C63.9282 108.114 64.2177 108.326 64.5476 108.48C64.8803 108.633 65.2407 108.71 65.632 108.71C66.0171 108.71 66.3778 108.633 66.7197 108.48C67.0617 108.326 67.3607 108.114 67.6194 107.84C67.875 107.567 68.0785 107.241 68.2295 106.863C68.3773 106.482 68.4544 106.067 68.4544 105.612C68.4544 105.157 68.3804 104.739 68.2295 104.361C68.0785 103.98 67.875 103.654 67.6194 103.384C67.3607 103.11 67.0617 102.898 66.7197 102.745C66.3778 102.591 66.0171 102.517 65.632 102.517C65.2407 102.517 64.8803 102.594 64.5476 102.745C64.2147 102.898 63.9282 103.11 63.6847 103.384C63.4413 103.657 63.2471 103.983 63.1086 104.361C62.9699 104.742 62.899 105.157 62.899 105.612C62.899 106.067 62.9699 106.482 63.1086 106.863Z" fill="white"/>
<path d="M72.7096 109.021V102.739H70.0938V102.204H76.2161V102.739H73.6V109.021H72.7096Z" fill="white"/>
<path d="M81.9981 102.2V102.735H78.4733V105.181H81.4989V105.649H78.4733V108.482H81.9981V109.017H77.5859V102.2H81.9981Z" fill="white"/>
<path d="M89.71 109.02H88.7425L86.2713 103.295H86.2312L84.327 108.114C84.1976 108.446 84.0498 108.698 83.8834 108.873C83.7169 109.048 83.5291 109.134 83.3226 109.134C83.1931 109.134 83.0638 109.125 82.9374 109.106C82.8111 109.088 82.6908 109.057 82.5801 109.017L82.8419 108.353C82.9066 108.387 82.9775 108.424 83.0577 108.47C83.1347 108.516 83.2177 108.538 83.301 108.538C83.5168 108.538 83.6738 108.449 83.7755 108.274C83.8772 108.098 83.982 107.865 84.093 107.573L86.2004 102.197H86.7366L89.71 109.02Z" fill="white"/>
<path d="M91.1738 102.2H92.0612V105.181H93.5556C93.9869 105.181 94.3505 105.234 94.6526 105.341C94.9544 105.449 95.201 105.587 95.395 105.756C95.5892 105.925 95.7277 106.119 95.8141 106.34C95.9004 106.561 95.9466 106.783 95.9466 107.001C95.9466 107.234 95.9065 107.471 95.8264 107.708C95.7432 107.944 95.6108 108.163 95.4197 108.356C95.2317 108.55 94.9791 108.71 94.668 108.836C94.3536 108.959 93.9654 109.02 93.497 109.02H91.1738V102.2ZM93.4477 108.59C93.6758 108.59 93.8821 108.55 94.0671 108.473C94.252 108.396 94.4121 108.289 94.5447 108.15C94.6772 108.015 94.7818 107.858 94.8558 107.677C94.9298 107.499 94.9699 107.308 94.9699 107.108C94.9699 106.893 94.9298 106.694 94.8466 106.509C94.7633 106.325 94.6526 106.165 94.5046 106.033C94.3566 105.901 94.1811 105.796 93.9777 105.722C93.7714 105.649 93.5494 105.609 93.3092 105.609H92.0581V108.59H93.4477Z" fill="white"/>
<path d="M49.2601 114.968L50.7575 119.934H55.6043L51.6819 123.002L53.1825 127.972L49.2601 124.901L45.3379 127.972L46.8382 123.002L42.916 119.934H47.7626L49.2601 114.968Z" fill="white"/>
<path d="M61.9478 114.968L63.445 119.934H68.2918L64.3694 123.002L65.87 127.972L61.9478 124.901L58.0254 127.972L59.5259 123.002L55.6035 119.934H60.4503L61.9478 114.968Z" fill="white"/>
<path d="M74.6409 114.968L76.1384 119.934H80.9852L77.0628 123.002L78.5633 127.972L74.6409 124.901L70.7187 127.972L72.2191 123.002L68.2969 119.934H73.1436L74.6409 114.968Z" fill="white"/>
<path fill-rule="evenodd" clip-rule="evenodd" d="M21.7781 20.6128L32.5774 10.1077L33.2461 9.45621L33.9179 8.80469L34.5864 9.45621L35.2551 10.1077L42.197 16.8633C42.1476 17.0815 42.0983 17.2965 42.0521 17.5179C41.7841 18.7996 41.5806 20.1088 41.4452 21.4427L33.9117 14.1157L23.0012 24.7312L21.2789 26.4063L21.3774 24.0182L21.4883 21.2553L21.5038 20.8772L21.7781 20.6128ZM21.2512 33.3891L32.5743 22.377L33.243 21.7255L33.9117 21.074L34.5802 21.7255L35.252 22.377L41.2356 28.1981V33.5058L33.9117 26.3816L22.4743 37.5076L20.752 39.1825L20.8507 36.7945L20.9645 34.0314L20.9799 33.6534L21.2512 33.3891ZM35.6125 40.3013V51.9619H32.2231V40.3013L21.9567 50.2899L20.2344 51.965L20.333 49.5768L20.4469 46.8139L20.4623 46.4359L20.7305 46.1745L32.5774 34.6492L33.2461 33.9976L33.9148 33.3461L34.5833 33.9976L35.2551 34.6492L41.2387 40.4703V45.7782L35.6125 40.3013Z" fill="white"/>
<path fill-rule="evenodd" clip-rule="evenodd" d="M48.6605 51.9627H46.0293V25.6171C46.0293 20.5705 46.966 16.0986 48.8362 12.2139C50.7096 8.32905 53.3624 5.3262 56.8255 3.18724C60.2734 1.06639 64.1897 0 68.5741 0C74.9121 0 80.0114 2.20975 83.8691 6.63254C78.357 10.041 72.786 14.4051 67.7453 19.4733C59.0657 28.1956 51.8187 39.0818 48.9347 50.8469L48.6605 51.9627ZM89.9329 51.9627H71.9295C74.6779 49.8572 78.4523 47.9086 82.6704 46.4457C85.0152 45.6314 87.471 44.9827 89.9329 44.5524V51.9627Z" fill="white"/>
<path fill-rule="evenodd" clip-rule="evenodd" d="M99.3369 29.81C99.7158 34.8782 100.378 38.7476 100.933 39.5405C87.7147 37.6995 70.9345 44.5409 65.1358 51.9664H62.8466C66.6672 46.5756 72.4042 41.4 79.3309 37.3215C85.2836 33.8116 92.1053 31.1223 99.3369 29.81ZM99.1272 17.1137C98.9579 20.7803 99.0163 24.5361 99.2105 27.9044C91.6647 29.2445 84.5502 32.0321 78.3541 35.6834C70.7374 40.1675 64.4949 45.9609 60.5326 51.9633H58.314C61.2843 45.7366 67.4405 38.2434 75.1619 31.5926C82.2671 25.4735 90.6725 20.101 99.1272 17.1137ZM53.5723 51.9633C59.3863 28.2333 84.9016 7.92099 101.272 4.03613C100.169 6.99907 99.5432 10.9146 99.2475 15.0668C90.2905 18.0849 81.3859 23.7216 73.9141 30.1574C65.7121 37.2231 59.2106 45.2939 56.2343 51.9633H53.5723Z" fill="white"/>
<path d="M100.928 55.0781H20.2324V59.126H100.928V55.0781Z" fill="white"/>
</g>
<defs>
<clipPath id="clip0_442_185">
<rect width="127" height="128" fill="white"/>
</clipPath>
</defs>
</svg>
