<svg width="64" height="64" viewBox="0 0 64 64" fill="none" xmlns="http://www.w3.org/2000/svg">
<path d="M61.8661 61.8667L44.7995 44.8M27.7328 17.0667V38.4M17.0661 27.7333H38.3995M27.7328 53.3333C24.371 53.3333 21.0421 52.6712 17.9361 51.3846C14.8302 50.0981 12.0081 48.2124 9.63088 45.8353C7.2537 43.4581 5.36802 40.636 4.0815 37.53C2.79498 34.4241 2.13281 31.0952 2.13281 27.7333C2.13281 24.3715 2.79498 21.0426 4.0815 17.9366C5.36802 14.8307 7.2537 12.0086 9.63088 9.6314C12.0081 7.25422 14.8302 5.36854 17.9361 4.08202C21.0421 2.79549 24.371 2.13333 27.7328 2.13333C34.5224 2.13333 41.0338 4.83047 45.8347 9.6314C50.6357 14.4323 53.3328 20.9438 53.3328 27.7333C53.3328 34.5229 50.6357 41.0343 45.8347 45.8353C41.0338 50.6362 34.5224 53.3333 27.7328 53.3333Z" stroke="#262626" stroke-width="3"/>
</svg>
