<svg width="24" height="24" viewBox="0 0 24 24" fill="none" xmlns="http://www.w3.org/2000/svg">
<g clip-path="url(#clip0_1154_398)">
<path d="M4.6694 2.943L2.1239 8.883C2.06502 9.02068 2.04869 9.17283 2.07703 9.31986C2.10537 9.46689 2.17707 9.60207 2.2829 9.708L14.2919 21.717C14.3978 21.8228 14.533 21.8945 14.68 21.9229C14.8271 21.9512 14.9792 21.9349 15.1169 21.876L21.0569 19.3305C21.1696 19.2823 21.2687 19.2072 21.3456 19.1118C21.4225 19.0164 21.4749 18.9036 21.4981 18.7832C21.5214 18.6629 21.5148 18.5387 21.4789 18.4215C21.443 18.3043 21.379 18.1977 21.2924 18.111L18.0374 14.8575C17.926 14.7464 17.7825 14.6732 17.6271 14.6481C17.4718 14.6231 17.3126 14.6475 17.1719 14.718L14.1209 16.2435L7.7579 9.879L9.2819 6.828C9.35236 6.68734 9.3768 6.52807 9.35177 6.37275C9.32673 6.21743 9.25349 6.07391 9.1424 5.9625L5.8874 2.7075C5.80067 2.62123 5.69416 2.55747 5.57714 2.5218C5.46013 2.48612 5.33616 2.47961 5.21606 2.50283C5.09595 2.52606 4.98334 2.57831 4.88806 2.65503C4.79278 2.73175 4.71771 2.83062 4.6694 2.943Z" fill="white"/>
</g>
<defs>
<clipPath id="clip0_1154_398">
<rect width="24" height="24" fill="white" transform="matrix(-1 0 0 1 24 0)"/>
</clipPath>
</defs>
</svg>
